<svg aria-hidden="true" aria-role="presentation" class="logo-ul-city" viewBox="0 0 216 52"><path d="M72.62 26.01c.34-.24.59-.59.72-1.04l-.87-.29c-.17.54-.54.81-1.11.81-.43 0-.76-.17-.99-.52s-.34-.83-.34-1.46.11-1.13.34-1.47c.23-.35.57-.52 1.03-.52.5 0 .84.24 1.03.72l.88-.32c-.31-.85-.94-1.27-1.91-1.27-.72 0-1.28.25-1.69.76s-.62 1.2-.62 2.1.2 1.59.61 2.1c.4.5.95.75 1.65.75.5 0 .92-.13 1.27-.37m-7.89-4.13c.27-.27.62-.4 1.04-.4.35 0 .65.12.91.38.26.25.39.66.4 1.22h-2.8c.03-.54.18-.94.45-1.2m2.79 3.78-.56-.63c-.33.33-.72.49-1.17.49-.41 0-.75-.15-1.03-.45-.27-.3-.43-.71-.46-1.2h3.69c.02-.21.03-.42.03-.62 0-.85-.21-1.5-.63-1.94s-.96-.66-1.62-.66c-.74 0-1.32.25-1.76.76s-.66 1.2-.66 2.09.22 1.54.66 2.06 1.03.79 1.77.79 1.29-.24 1.76-.71m-8.39-.36c-.23-.13-.41-.31-.55-.54v-2.53c.11-.18.27-.35.5-.5.23-.15.49-.23.77-.23.46 0 .81.17 1.05.51.24.34.36.84.36 1.48s-.12 1.11-.36 1.47c-.24.35-.59.53-1.05.53-.25 0-.5-.06-.73-.19m2.5.32c.4-.49.59-1.2.59-2.12s-.21-1.59-.62-2.09c-.41-.5-.96-.76-1.64-.76-.55 0-1 .2-1.36.6v-2.72l-.93.44v7.27h.93v-.47c.41.4.88.6 1.4.6.69 0 1.23-.25 1.63-.75M53 21.83c.27-.27.62-.4 1.04-.4.35 0 .65.12.91.38s.39.66.4 1.22h-2.8c.02-.54.17-.94.44-1.2m2.79 3.78-.56-.63c-.33.33-.72.49-1.17.49-.41 0-.75-.15-1.03-.45-.27-.3-.43-.71-.46-1.2h3.69c.02-.21.03-.42.03-.62 0-.85-.21-1.5-.63-1.94s-.96-.66-1.62-.66c-.74 0-1.32.25-1.76.76-.44.5-.66 1.2-.66 2.09s.22 1.54.66 2.06 1.03.79 1.77.79 1.29-.24 1.76-.71m-2.03-5.57 1.9-1.67h-1.32l-1.52 1.67h.94Zm-3.6 6.15v-5.45h-.93v3.31c0 .94-.42 1.41-1.26 1.41-.36 0-.65-.12-.86-.34-.21-.23-.31-.59-.31-1.08v-3.28h-.93v3.15c0 .85.17 1.47.5 1.86.33.39.82.58 1.49.58.58 0 1.04-.22 1.38-.65v.52h.93Zm-10.05-1c-.3-.17-.53-.4-.69-.69s-.29-.61-.37-.95a4.791 4.791 0 0 1 0-2.13c.08-.33.2-.65.37-.95.17-.3.39-.55.69-.72.3-.18.64-.27 1.03-.27.52 0 .95.15 1.3.46.34.31.58.68.72 1.1.13.43.2.91.2 1.43 0 .97-.24 1.74-.71 2.31l-.51-.77-.71.48.53.8c-.23.11-.5.17-.82.17-.39 0-.74-.08-1.03-.25m2.38.85.58.85.68-.48-.56-.83c.76-.71 1.14-1.75 1.14-3.12 0-.39-.04-.75-.1-1.11s-.18-.71-.34-1.04c-.16-.34-.36-.63-.6-.88s-.54-.45-.91-.6-.78-.23-1.23-.23c-.56 0-1.06.11-1.48.34s-.75.53-.99.91-.41.79-.53 1.23c-.11.44-.17.9-.17 1.39s.06.95.17 1.39.29.85.53 1.23.57.68.99.91.91.34 1.48.34c.5-.01.95-.11 1.35-.29m-11.54-4.21c.27-.27.62-.4 1.04-.4.35 0 .65.12.91.38s.39.66.4 1.22h-2.8c.02-.54.17-.94.44-1.2m2.8 3.78-.56-.63c-.33.33-.72.49-1.17.49-.41 0-.75-.15-1.03-.45-.27-.3-.43-.71-.46-1.2h3.69c.02-.21.03-.42.03-.62 0-.85-.21-1.5-.63-1.94s-.96-.66-1.62-.66c-.74 0-1.32.25-1.76.76s-.66 1.2-.66 2.09.22 1.54.66 2.06 1.03.79 1.77.79c.7 0 1.29-.24 1.76-.71m-8.86-.72c-.26-.38-.39-.85-.39-1.43 0-.64.12-1.13.37-1.48s.6-.52 1.07-.52c.54 0 .95.23 1.25.69v2.56c-.29.49-.71.74-1.25.74-.44 0-.79-.2-1.05-.57m2.3.87v.43h.93v-7.71l-.93.44v2.2c-.39-.34-.84-.51-1.38-.51-.68 0-1.23.25-1.64.76s-.61 1.2-.61 2.09.2 1.58.61 2.09c.4.51.95.77 1.64.77.56 0 1.01-.19 1.37-.56m-10.49-3.93c.27-.27.62-.4 1.04-.4.35 0 .65.12.91.38s.39.66.4 1.22h-2.8c.03-.54.18-.94.45-1.2m2.8 3.78-.56-.63c-.33.33-.72.49-1.17.49-.41 0-.76-.15-1.03-.45-.27-.3-.43-.71-.46-1.2h3.69c.02-.21.03-.42.03-.62 0-.85-.21-1.5-.63-1.94s-.96-.66-1.62-.66c-.74 0-1.32.25-1.76.76s-.66 1.2-.66 2.09.22 1.54.66 2.06 1.03.79 1.77.79c.7 0 1.29-.24 1.76-.71m-5.68.58v-7.71l-.93.44v7.27h.93Zm-2.8 0v-7.71l-.93.44v7.27h.93ZM8.31 20.7h-.93v5.45h.93V20.7Zm.12-1.56c0-.17-.06-.3-.17-.42-.11-.12-.25-.18-.41-.18s-.29.06-.4.18a.59.59 0 0 0-.17.42c0 .15.05.29.17.4s.25.17.41.17.3-.05.41-.17c.11-.11.17-.25.17-.41m-5 7.02 2.55-7.47H5l-1.73 5.4c-.11.37-.18.62-.21.76-.02-.07-.09-.33-.23-.76l-1.78-5.4H.06l2.56 7.47h.82ZM145.21 6.67h1.26v6.3c0 1.63-1.16 3.27-3.78 3.27-2.37 0-3.78-1.2-3.78-3.21V6.67h1.42v6.18c0 1.62.78 2.37 2.47 2.37s2.39-1.19 2.39-2.37V6.67Zm5.31 0h-1.22v9.4h1.22V8.89l5.63 7.18h1.29v-9.4h-1.23v7.27l-5.68-7.27Zm9.94 0h1.41v9.4h-1.41v-9.4Zm3.4 0h1.44l2.32 7.05 2.55-7.05h1.21l-3.59 9.4h-.72l-3.21-9.4Zm15.03 0v.99h-4.17v3.06h3.34v.98h-3.34v3.36h4.17v1h-5.6V6.67h5.6Zm6.24 4.98.16-.05c.72-.21 1.77-1.32 1.77-2.58 0-1.14-1.05-2.36-3.34-2.36h-2.57v9.4h1.42V7.55h1.02c1.52 0 2.06.88 2.06 1.62 0 .79-.65 1.9-2.07 1.9h-.36l3.16 4.99h1.68l-2.92-4.42Zm8.69 2.21c0-.88-.84-1.39-1.8-1.97l-.33-.2c-1.07-.65-2.22-1.46-2.22-2.8s1.21-2.41 2.82-2.41c1.38 0 2.15.32 2.5.47-.03.07-.35.85-.39.93-.31-.14-.97-.42-1.86-.42-1.02 0-1.65.44-1.65 1.16 0 .87.72 1.31 1.62 1.87l.41.25.06.04c.94.59 2.35 1.49 2.35 2.78 0 1.6-1.71 2.68-3.31 2.68s-2.42-.43-2.79-.61c.04-.08.36-.82.4-.9h.01c.41.19 1.19.53 2.41.53.98 0 1.77-.63 1.77-1.4m3.9-7.18h1.41v9.4h-1.41V6.67Zm10.84 0v.99h-3.07v8.41h-1.42V7.66h-3.09v-.99h7.58Zm1.84 0v9.4h5.6v-1h-4.18v-3.36h3.34v-.98h-3.34V7.68H216v-.99h-5.6Zm4.2-3.13.55.83-2.41 1.32-.33-.51 2.19-1.64ZM180.7 19.8v.09c2.01.78.9 3.32.03 5.52l-4.4 11.14-6.44-16.75h-4.3v.09c1.26.96 1.92 2.86 2.53 4.43l6.13 15.88h3.1l8.18-20.4h-4.83Zm7.55 12.72 4.04-10.09 4.11 10.09h-8.15ZM216 37.16c-1.19.55-2.5.8-3.95.8h-4.4V19.8h-4.77v.09c1.49.51 1.46 2.84 1.46 4.28v15.92c-1.59-.79-2.41-2.63-3.15-4.39l-6.74-15.9h-5.12v.09c1.54.46.95 1.77.49 2.88l-5.41 12.93c-.74 1.76-1.51 3.59-3.14 4.4v.09h4.05l2.08-5.39h9.94l2.15 5.39h16.54v-3.05h-.01Zm-61.53-4.64 4.04-10.09 4.11 10.09h-8.15Zm12.92 3.18-6.74-15.9h-5.12v.09c1.54.46.95 1.77.49 2.88l-5.41 12.93c-.27.64-.54 1.29-.86 1.9-.78.23-1.61.36-2.5.36h-4.41V19.8h-4.77v.09c1.49.51 1.46 2.84 1.46 4.28V40.2h11.97l2.08-5.39h9.94l2.15 5.39h4.9v-.09c-1.7-.86-2.44-2.64-3.18-4.4M89.77 0v40.64c0 3.5 2.69 6.24 6.13 6.24h9.66c1.29 0 2.97.87 3.81 3.32l.47 1.35c.11.28.28.46.46.46s.35-.18.46-.46l.46-1.35c.84-2.45 2.52-3.32 3.81-3.32h9.66c3.44 0 6.13-2.74 6.13-6.24V0H89.77Z"/><path fill="#e30513" d="M90.75.98h15.9V19.8h-15.9V.98Zm0 26.09v13.56c0 3.06 2.36 5.25 5.15 5.25h9.66c.35 0 .72.05 1.1.15V27.06h-15.9ZM113.94.98h15.9V19.8h-15.9V.98Zm0 45.06c.38-.11.75-.15 1.1-.15h9.66c2.79 0 5.15-2.2 5.15-5.25V27.08h-15.91v18.97Z"/><path fill="#ffc103" d="M113.94 19.8V.98h-7.28V19.8h-15.9v7.28h15.9v18.97c1.38.39 2.86 1.54 3.65 3.82.79-2.28 2.26-3.43 3.64-3.82V27.08h15.91V19.8h-15.92Z"/><path d="M96.62 8.75c.04.12-.05.21-.13.26-.17.08-.65.12-.83.06 0 0-.24.43-.6.43s-.6-.43-.6-.43c-.18.06-.66.02-.83-.06-.09-.04-.17-.14-.13-.26.1-.39.43-1.64.53-2.08l-.65.24c-.11.5-.46 1.29-1.05 1.34-.08 0-.21-.03-.2-.11.08-.67.49-3.7.52-4 .04-.28.13-.42.33-.49s.34-.02.56.17l.75.69s.07-.5.08-.66h-.15c-.08 0-.15-.07-.15-.15l.07-.6c0-.06.04-.12.09-.14 0 0 .25-.12.47-.2.21-.08.36-.08.36-.08a.617.617 0 0 1 .63.54l.14 1.3.75-.69c.21-.19.36-.24.55-.17.2.07.3.2.33.49.04.29.45 3.33.53 4 0 .08-.12.12-.2.11-.59-.04-.94-.84-1.06-1.34l-.65-.24c.11.45.43 1.7.54 2.09m7.29 0c.04.12-.04.21-.13.26-.17.08-.65.12-.83.06 0 0-.24.43-.6.43s-.6-.43-.6-.43c-.18.06-.66.02-.83-.06-.09-.04-.17-.14-.13-.26.1-.39.43-1.64.53-2.08l-.65.24c-.11.5-.46 1.29-1.05 1.34-.08 0-.21-.03-.2-.11.08-.67.49-3.7.53-4 .04-.28.13-.42.33-.49s.34-.02.55.17l.75.69s.07-.5.08-.66h-.15c-.08 0-.15-.07-.15-.15l.07-.6c0-.06.04-.12.09-.14 0 0 .25-.12.47-.2.21-.08.36-.08.36-.08a.617.617 0 0 1 .63.54l.14 1.3.75-.69c.21-.19.36-.24.56-.17.2.07.3.2.33.49.04.29.45 3.33.53 4 0 .08-.12.12-.2.11-.59-.04-.94-.84-1.06-1.34l-.65-.24c.11.45.43 1.7.53 2.09m-7.29 8.6c.04.12-.05.21-.13.26-.17.08-.65.12-.83.06 0 0-.24.43-.6.43s-.6-.43-.6-.43c-.18.06-.66.02-.83-.06-.09-.04-.17-.14-.13-.26.1-.39.43-1.64.53-2.08l-.65.24c-.11.5-.46 1.29-1.05 1.34-.08 0-.21-.03-.2-.11.08-.67.49-3.7.52-4 .04-.28.13-.42.33-.49s.34-.02.56.17l.75.69s.07-.5.08-.66h-.15c-.08 0-.15-.07-.15-.15l.07-.6c0-.06.04-.12.09-.14 0 0 .25-.12.47-.2.21-.08.36-.08.36-.08a.617.617 0 0 1 .63.54l.14 1.3.75-.69c.21-.19.36-.24.55-.17.2.07.3.2.33.49.04.29.45 3.33.53 4 0 .08-.12.12-.2.11-.59-.04-.94-.84-1.06-1.34l-.65-.24c.11.44.43 1.7.54 2.09m7.29 0c.04.12-.04.21-.13.26-.17.08-.65.12-.83.06 0 0-.24.43-.6.43s-.6-.43-.6-.43c-.18.06-.66.02-.83-.06-.09-.04-.17-.14-.13-.26.1-.39.43-1.64.53-2.08l-.65.24c-.11.5-.46 1.29-1.05 1.34-.08 0-.21-.03-.2-.11.08-.67.49-3.7.53-4 .04-.28.13-.42.33-.49s.34-.02.55.17l.75.69s.07-.5.08-.66h-.15c-.08 0-.15-.07-.15-.15l.07-.6c0-.06.04-.12.09-.14 0 0 .25-.12.47-.2.21-.08.36-.08.36-.08a.617.617 0 0 1 .63.54l.14 1.3.75-.69c.21-.19.36-.24.56-.17s.3.2.33.49c.04.29.45 3.33.53 4 0 .08-.12.12-.2.11-.59-.04-.94-.84-1.06-1.34l-.65-.24c.11.44.43 1.7.53 2.09m15.9-8.6c.03.12-.05.21-.13.26-.17.08-.65.12-.83.06 0 0-.24.43-.6.43s-.6-.43-.6-.43c-.18.06-.66.02-.83-.06-.09-.04-.17-.14-.13-.26.1-.39.43-1.64.53-2.08l-.65.24c-.11.5-.46 1.29-1.05 1.34-.08 0-.21-.03-.2-.11.08-.67.49-3.7.52-4 .04-.28.13-.42.33-.49s.34-.02.56.17c.17.15.75.69.75.69s.07-.5.08-.66h-.15c-.08 0-.15-.07-.15-.15l.07-.6c0-.06.04-.12.09-.14 0 0 .25-.12.47-.2.21-.08.36-.08.36-.08a.617.617 0 0 1 .63.54l.14 1.3.75-.69c.21-.19.36-.24.56-.17.2.07.3.2.33.49.04.29.45 3.33.53 4 0 .08-.12.12-.2.11-.59-.04-.94-.84-1.06-1.34l-.65-.24c.11.45.43 1.7.53 2.09m7.29 0c.04.12-.05.21-.13.26-.17.08-.65.12-.83.06 0 0-.24.43-.6.43s-.6-.43-.6-.43c-.18.06-.66.02-.83-.06-.09-.04-.17-.14-.13-.26.1-.39.42-1.64.53-2.08l-.65.24c-.11.5-.46 1.29-1.06 1.34-.08 0-.21-.03-.2-.11.08-.67.49-3.7.52-4 .04-.28.13-.42.33-.49s.34-.02.56.17c.17.15.75.69.75.69s.07-.5.08-.66h-.15c-.08 0-.15-.07-.15-.15l.07-.6c0-.06.04-.12.09-.14 0 0 .25-.12.47-.2.21-.08.36-.08.36-.08a.617.617 0 0 1 .63.54l.14 1.3s.59-.55.75-.69c.21-.19.36-.24.55-.17.2.07.3.2.33.49.04.29.45 3.33.53 4 0 .08-.12.12-.2.11-.59-.04-.94-.84-1.06-1.34l-.65-.24c.12.45.44 1.7.55 2.09m-7.29 8.6c.03.12-.05.21-.13.26-.17.08-.65.12-.83.06 0 0-.24.43-.6.43s-.6-.43-.6-.43c-.18.06-.66.02-.83-.06-.09-.04-.17-.14-.13-.26.1-.39.43-1.64.53-2.08l-.65.24c-.11.5-.46 1.29-1.05 1.34-.08 0-.21-.03-.2-.11.08-.67.49-3.7.52-4 .04-.28.13-.42.33-.49s.34-.02.56.17c.17.15.75.69.75.69s.07-.5.08-.66h-.15c-.08 0-.15-.07-.15-.15l.07-.6c0-.06.04-.12.09-.14 0 0 .25-.12.47-.2.21-.08.36-.08.36-.08a.617.617 0 0 1 .63.54l.14 1.3.75-.69c.21-.19.36-.24.56-.17s.3.2.33.49c.04.29.45 3.33.53 4 0 .08-.12.12-.2.11-.59-.04-.94-.84-1.06-1.34l-.65-.24c.11.44.43 1.7.53 2.09m7.29 0c.04.12-.05.21-.13.26-.17.08-.65.12-.83.06 0 0-.24.43-.6.43s-.6-.43-.6-.43c-.18.06-.66.02-.83-.06-.09-.04-.17-.14-.13-.26.1-.39.42-1.64.53-2.08l-.65.24c-.11.5-.46 1.29-1.06 1.34-.08 0-.21-.03-.2-.11.08-.67.49-3.7.52-4 .04-.28.13-.42.33-.49s.34-.02.56.17c.17.15.75.69.75.69s.07-.5.08-.66h-.15c-.08 0-.15-.07-.15-.15l.07-.6c0-.06.04-.12.09-.14 0 0 .25-.12.47-.2.21-.08.36-.08.36-.08a.617.617 0 0 1 .63.54l.14 1.3s.59-.55.75-.69c.21-.19.36-.24.55-.17.2.07.3.2.33.49.04.29.45 3.33.53 4 0 .08-.12.12-.2.11-.59-.04-.94-.84-1.06-1.34l-.65-.24c.12.44.44 1.7.55 2.09m-30.48 17.5c.04.12-.05.21-.13.26-.17.08-.65.12-.83.06 0 0-.24.43-.6.43s-.6-.43-.6-.43c-.18.06-.66.02-.83-.06-.09-.04-.17-.14-.13-.26.1-.39.43-1.64.53-2.08l-.65.24c-.11.5-.46 1.29-1.05 1.34-.08 0-.21-.03-.2-.11.08-.67.49-3.7.52-4 .04-.29.13-.42.33-.49s.34-.02.56.17l.75.69s.07-.5.08-.66h-.15c-.08 0-.15-.07-.15-.15l.07-.6c0-.06.04-.12.09-.14 0 0 .25-.12.47-.2s.36-.08.36-.08a.617.617 0 0 1 .63.54l.14 1.3.75-.69c.21-.19.36-.24.55-.17.2.07.3.2.33.49.04.29.45 3.33.53 4 0 .08-.12.12-.2.11-.59-.04-.94-.84-1.06-1.34l-.65-.24c.11.45.43 1.7.54 2.09m7.29 0c.04.12-.04.21-.13.26-.17.08-.65.12-.83.06 0 0-.24.43-.6.43s-.6-.43-.6-.43c-.18.06-.66.02-.83-.06-.09-.04-.17-.14-.13-.26.1-.39.43-1.64.53-2.08l-.65.24c-.11.5-.46 1.29-1.05 1.34-.08 0-.21-.03-.2-.11.08-.67.49-3.7.53-4 .04-.29.13-.42.33-.49s.34-.02.55.17l.75.69s.07-.5.08-.66h-.15c-.08 0-.15-.07-.15-.15l.07-.6c0-.06.04-.12.09-.14 0 0 .25-.12.47-.2s.36-.08.36-.08a.617.617 0 0 1 .63.54l.14 1.3.75-.69c.21-.19.36-.24.56-.17s.3.2.33.49c.04.29.45 3.33.53 4 0 .08-.12.12-.2.11-.59-.04-.94-.84-1.06-1.34l-.65-.24c.11.45.43 1.7.53 2.09m-7.29 8.6c.04.12-.05.21-.13.26-.17.08-.65.12-.83.06 0 0-.24.43-.6.43s-.6-.43-.6-.43c-.18.06-.66.02-.83-.06-.09-.04-.17-.14-.13-.26.1-.39.43-1.64.53-2.08l-.65.24c-.11.5-.46 1.29-1.05 1.34-.08 0-.21-.03-.2-.11.08-.67.49-3.7.52-4 .04-.29.13-.42.33-.49s.34-.02.56.17l.75.69s.07-.5.08-.66h-.15c-.08 0-.15-.07-.15-.15l.07-.6c0-.06.04-.12.09-.14 0 0 .25-.12.47-.2.21-.08.36-.08.36-.08a.617.617 0 0 1 .63.54l.14 1.3.75-.69c.21-.19.36-.24.55-.17.2.07.3.2.33.49.04.29.45 3.32.53 4 0 .08-.12.12-.2.11-.59-.04-.94-.84-1.06-1.34l-.65-.24c.11.44.43 1.7.54 2.09m7.29 0c.04.12-.04.21-.13.26-.17.08-.65.12-.83.06 0 0-.24.43-.6.43s-.6-.43-.6-.43c-.18.06-.66.02-.83-.06-.09-.04-.17-.14-.13-.26.1-.39.43-1.64.53-2.08l-.65.24c-.11.5-.46 1.29-1.05 1.34-.08 0-.21-.03-.2-.11.08-.67.49-3.7.53-4 .04-.29.13-.42.33-.49s.34-.02.55.17l.75.69s.07-.5.08-.66h-.15c-.08 0-.15-.07-.15-.15l.07-.6c0-.06.04-.12.09-.14 0 0 .25-.12.47-.2.21-.08.36-.08.36-.08a.617.617 0 0 1 .63.54l.14 1.3.75-.69c.21-.19.36-.24.56-.17s.3.2.33.49c.04.29.45 3.32.53 4 0 .08-.12.12-.2.11-.59-.04-.94-.84-1.06-1.34l-.65-.24c.11.44.43 1.7.53 2.09m15.9-8.6c.03.12-.05.21-.13.26-.17.08-.65.12-.83.06 0 0-.24.43-.6.43s-.6-.43-.6-.43c-.18.06-.66.02-.83-.06-.09-.04-.17-.14-.13-.26.1-.39.43-1.64.53-2.08l-.65.24c-.11.5-.46 1.29-1.05 1.34-.08 0-.21-.03-.2-.11.08-.67.49-3.7.52-4 .04-.29.13-.42.33-.49s.34-.02.56.17c.17.15.75.69.75.69s.07-.5.08-.66h-.15c-.08 0-.15-.07-.15-.15l.07-.6c0-.06.04-.12.09-.14 0 0 .25-.12.47-.2s.36-.08.36-.08a.617.617 0 0 1 .63.54l.14 1.3.75-.69c.21-.19.36-.24.56-.17s.3.2.33.49c.04.29.45 3.33.53 4 0 .08-.12.12-.2.11-.59-.04-.94-.84-1.06-1.34l-.65-.24c.11.45.43 1.7.53 2.09m7.29 0c.04.12-.05.21-.13.26-.17.08-.65.12-.83.06 0 0-.24.43-.6.43s-.6-.43-.6-.43c-.18.06-.66.02-.83-.06-.09-.04-.17-.14-.13-.26.1-.39.42-1.64.53-2.08l-.65.24c-.11.5-.46 1.29-1.06 1.34-.08 0-.21-.03-.2-.11.08-.67.49-3.7.52-4 .04-.29.13-.42.33-.49s.34-.02.56.17c.17.15.75.69.75.69s.07-.5.08-.66h-.15c-.08 0-.15-.07-.15-.15l.07-.6c0-.06.04-.12.09-.14 0 0 .25-.12.47-.2s.36-.08.36-.08a.617.617 0 0 1 .63.54l.14 1.3s.59-.55.75-.69c.21-.19.36-.24.55-.17.2.07.3.2.33.49.04.29.45 3.33.53 4 0 .08-.12.12-.2.11-.59-.04-.94-.84-1.06-1.34l-.65-.24c.12.45.44 1.7.55 2.09m-7.29 8.6c.03.12-.05.21-.13.26-.17.08-.65.12-.83.06 0 0-.24.43-.6.43s-.6-.43-.6-.43c-.18.06-.66.02-.83-.06-.09-.04-.17-.14-.13-.26.1-.39.43-1.64.53-2.08l-.65.24c-.11.5-.46 1.29-1.05 1.34-.08 0-.21-.03-.2-.11.08-.67.49-3.7.52-4 .04-.29.13-.42.33-.49s.34-.02.56.17c.17.15.75.69.75.69s.07-.5.08-.66h-.15c-.08 0-.15-.07-.15-.15l.07-.6c0-.06.04-.12.09-.14 0 0 .25-.12.47-.2.21-.08.36-.08.36-.08a.617.617 0 0 1 .63.54l.14 1.3.75-.69c.21-.19.36-.24.56-.17s.3.2.33.49c.04.29.45 3.32.53 4 0 .08-.12.12-.2.11-.59-.04-.94-.84-1.06-1.34l-.65-.24c.11.44.43 1.7.53 2.09m7.29 0c.04.12-.05.21-.13.26-.17.08-.65.12-.83.06 0 0-.24.43-.6.43s-.6-.43-.6-.43c-.18.06-.66.02-.83-.06-.09-.04-.17-.14-.13-.26.1-.39.42-1.64.53-2.08l-.65.24c-.11.5-.46 1.29-1.06 1.34-.08 0-.21-.03-.2-.11.08-.67.49-3.7.52-4 .04-.29.13-.42.33-.49s.34-.02.56.17c.17.15.75.69.75.69s.07-.5.08-.66h-.15c-.08 0-.15-.07-.15-.15l.07-.6c0-.06.04-.12.09-.14 0 0 .25-.12.47-.2.21-.08.36-.08.36-.08a.617.617 0 0 1 .63.54l.14 1.3s.59-.55.75-.69c.21-.19.36-.24.55-.17.2.07.3.2.33.49.04.29.45 3.32.53 4 0 .08-.12.12-.2.11-.59-.04-.94-.84-1.06-1.34l-.65-.24c.12.44.44 1.7.55 2.09M110.3 13.4c.31 0 .59-.17.74-.41a.888.888 0 0 0 1.29-.69c.47-.01.87-.4.87-.88 0-.22-.08-.42-.21-.58-.21-.25-.98-1.19-1-1.2v-.5c0-.24-.19-.43-.43-.43h-.44l-.4-.4a.583.583 0 0 0-.82 0l-.4.4h-.44c-.24 0-.43.2-.43.43v.5s-.78.94-1 1.2c-.14.15-.21.36-.21.58 0 .48.39.87.87.88.05.44.42.79.88.79.15 0 .28-.04.41-.1.15.24.43.41.74.41m0 13.05c.31 0 .59-.17.74-.41a.888.888 0 0 0 1.29-.69c.47-.01.87-.4.87-.88 0-.22-.08-.42-.21-.58-.21-.25-.98-1.19-1-1.2v-.5c0-.24-.19-.43-.43-.43h-.44l-.4-.4a.583.583 0 0 0-.82 0s-.35.36-.4.4h-.44c-.24 0-.43.2-.43.43v.5s-.78.94-1 1.2c-.14.15-.21.36-.21.58 0 .48.39.87.87.88.05.44.42.79.88.79.15 0 .28-.04.41-.1.15.24.43.41.74.41m-11.6 0c.31 0 .59-.17.74-.41a.888.888 0 0 0 1.29-.69c.47-.01.87-.4.87-.88 0-.22-.08-.42-.21-.58-.21-.25-.98-1.19-1-1.2v-.5c0-.24-.19-.43-.43-.43h-.44l-.4-.4a.583.583 0 0 0-.82 0s-.35.36-.4.4h-.44c-.24 0-.43.2-.43.43v.5s-.78.94-1 1.2a.886.886 0 0 0 .66 1.46c.05.44.42.79.88.79.15 0 .28-.04.41-.1.15.24.43.41.74.41m23.19 0c.31 0 .59-.17.74-.41a.888.888 0 0 0 1.29-.69.886.886 0 0 0 .66-1.46c-.21-.25-.98-1.19-1-1.2v-.5c0-.24-.19-.43-.43-.43h-.44l-.4-.4a.583.583 0 0 0-.82 0s-.35.36-.4.4h-.44c-.24 0-.43.2-.43.43v.5s-.78.94-1 1.2a.886.886 0 0 0 .66 1.46c.05.44.42.79.88.79.15 0 .28-.04.41-.1.15.24.42.41.74.41m-11.6 13.05c.31 0 .59-.17.74-.41a.888.888 0 0 0 1.29-.69c.47-.01.87-.4.87-.88 0-.22-.08-.42-.21-.58-.21-.25-.98-1.19-1-1.2v-.5c0-.24-.19-.43-.43-.43h-.44l-.4-.4a.583.583 0 0 0-.82 0l-.4.4h-.44c-.24 0-.43.2-.43.43v.5s-.78.94-1 1.2c-.14.15-.21.36-.21.58 0 .48.39.87.87.88.05.44.42.79.88.79.15 0 .28-.04.41-.1.15.24.43.41.74.41"/><path fill="#09f" d="M110.3 12.78c.21-.01.39-.12.48-.3l-.17-1.6c0-.06.04-.12.1-.12.07 0 .12.04.13.09l.28 1.54c.29.16.65.06.82-.23.04-.07.07-.16.07-.24l-.66-1.52c-.02-.06 0-.13.06-.15.06-.02.12 0 .15.05l.71 1.38a.6.6 0 0 0 .6-.59c0-.12-.01-.23-.07-.32l-1.13-1.35v-.61c0-.07-.05-.12-.12-.12h-.56l-.49-.49a.297.297 0 0 0-.2-.08.28.28 0 0 0-.2.08l-.49.49h-.56c-.07 0-.12.06-.12.12v.61l-1.13 1.35c-.07.09-.08.2-.08.32 0 .33.27.59.6.59l.71-1.38c.03-.05.09-.08.15-.05s.09.09.06.15l-.66 1.52a.59.59 0 0 0 .89.47l.28-1.54c.01-.07.07-.11.14-.09.06.01.11.07.1.12l-.17 1.6c.1.17.28.28.48.3m0 13.05c.21-.01.39-.12.48-.3l-.17-1.6c0-.06.04-.12.1-.12.07 0 .12.04.13.09l.28 1.54c.29.16.65.06.82-.23.04-.07.07-.16.07-.24l-.66-1.52c-.02-.06 0-.13.06-.15.06-.02.12 0 .15.05l.71 1.38a.6.6 0 0 0 .6-.59c0-.12-.01-.23-.07-.32l-1.13-1.35v-.61c0-.07-.05-.12-.12-.12h-.56l-.49-.49a.297.297 0 0 0-.2-.08.28.28 0 0 0-.2.08l-.49.49h-.56c-.07 0-.12.06-.12.12v.61l-1.13 1.35c-.07.09-.08.2-.08.32 0 .33.27.59.6.59l.71-1.38c.03-.05.09-.08.15-.05.06.02.09.09.06.15l-.66 1.52a.59.59 0 0 0 .89.47l.28-1.54c.01-.06.07-.11.14-.09.06.01.11.07.1.12l-.17 1.6c.1.17.28.28.48.3m-11.6 0c.21-.01.39-.12.48-.3l-.17-1.6c0-.06.04-.12.1-.12.07 0 .12.04.13.09l.28 1.54c.29.16.65.06.82-.23.04-.07.07-.16.07-.24l-.66-1.52c-.02-.06 0-.13.06-.15.06-.02.12 0 .15.05l.71 1.38a.6.6 0 0 0 .6-.59c0-.12-.01-.23-.08-.32l-1.13-1.35v-.61c0-.07-.05-.12-.12-.12h-.56l-.49-.49a.297.297 0 0 0-.2-.08.28.28 0 0 0-.2.08l-.49.49h-.56c-.07 0-.12.06-.12.12v.61l-1.13 1.35c-.07.09-.08.2-.08.32 0 .33.27.59.6.59l.71-1.38c.03-.05.09-.08.15-.05.06.02.09.09.06.15l-.66 1.52a.59.59 0 0 0 .89.47l.28-1.54c.01-.06.07-.11.14-.09.06.01.11.07.1.12l-.17 1.6c.11.17.28.28.49.3m23.19 0c.21-.01.39-.12.48-.3l-.17-1.6c0-.06.04-.12.1-.12.07 0 .12.04.13.09l.28 1.54c.29.16.65.06.82-.23.04-.07.07-.16.07-.24l-.66-1.52c-.02-.06 0-.13.06-.15.06-.02.12 0 .15.05l.71 1.38a.6.6 0 0 0 .6-.59c0-.12-.01-.23-.07-.32l-1.13-1.35v-.61c0-.07-.05-.12-.12-.12h-.56l-.49-.49a.297.297 0 0 0-.2-.08.28.28 0 0 0-.2.08l-.49.49h-.56c-.07 0-.12.06-.12.12v.61l-1.13 1.35c-.07.09-.08.2-.08.32 0 .33.27.59.6.59l.71-1.38c.03-.05.09-.08.15-.05.06.02.09.09.06.15l-.66 1.52a.59.59 0 0 0 .89.47l.28-1.54c.01-.06.07-.11.13-.09s.11.07.1.12l-.17 1.6c.1.17.28.28.49.3m-11.6 13.05c.21-.01.39-.12.48-.3l-.17-1.6c0-.06.04-.12.1-.12.07-.01.12.04.13.09l.28 1.54c.29.16.65.06.82-.23.04-.07.07-.16.07-.24l-.66-1.52c-.02-.06 0-.13.06-.15s.12 0 .15.05l.71 1.38a.6.6 0 0 0 .6-.59c0-.12-.01-.23-.07-.32l-1.13-1.35v-.61c0-.07-.05-.12-.12-.12h-.56l-.49-.49a.297.297 0 0 0-.2-.08.28.28 0 0 0-.2.08l-.49.49h-.56c-.07 0-.12.06-.12.12v.61l-1.13 1.35c-.07.09-.08.2-.08.32 0 .33.27.59.6.59l.71-1.38c.03-.05.09-.08.15-.05.06.02.09.09.06.15l-.66 1.52a.59.59 0 0 0 .89.47l.28-1.54c.01-.07.07-.11.14-.09.06 0 .11.07.1.12l-.17 1.6c.1.17.28.28.48.3"/><path fill="#d9d9d9" d="M96.31 8.75c-.11.04-.34.06-.46.05-.03 0-.06 0-.08-.02h-.02l-.24-1.16c-.04-.21-.22-.2-.2.04l.12 1.18c-.03.06-.21.35-.37.35s-.34-.29-.37-.35l.12-1.18c.02-.23-.15-.25-.2-.04l-.24 1.15h-.02s-.05.02-.08.03c-.12.01-.35-.01-.46-.05.15-.59.49-1.89.59-2.3.02-.07-.02-.17-.15-.18-.01 0-.04 0-.07.02-.15.05-.57.21-.71.27l.09-.94c.02-.24-.17-.25-.21-.04-.18.84-.29 1.97-.9 2.34.05-.4.44-3.36.5-3.76.02-.09.02-.16.12-.2.08-.02.14 0 .21.07l.99.91c.04.05.1.07.16.05s.1-.07.11-.13l.14-1.12s0-.09-.04-.12a.16.16 0 0 0-.11-.05h-.15l.04-.35c.11-.05.41-.19.56-.21h.07c.08 0 .17.02.23.07s.09.11.11.2l.17 1.59c0 .06.05.11.11.13.06.02.12 0 .16-.05 0 0 .99-.91 1-.91.07-.07.14-.1.21-.07.11.04.11.11.12.2.05.4.45 3.36.5 3.76-.6-.37-.71-1.5-.9-2.34-.04-.21-.23-.2-.21.04l.09.94a33.2 33.2 0 0 1-.71-.27c-.02 0-.05-.02-.07-.02-.12 0-.17.11-.15.18.09.41.43 1.7.58 2.29m7.29 0c-.11.04-.34.06-.46.05-.03 0-.06 0-.08-.02h-.02l-.24-1.16c-.04-.21-.22-.2-.2.04l.12 1.18c-.03.06-.21.35-.37.35s-.34-.29-.37-.35l.12-1.18c.02-.23-.15-.25-.2-.04l-.24 1.15h-.02s-.05.02-.08.03c-.12.01-.35-.01-.46-.05.15-.59.49-1.89.59-2.3.02-.07-.02-.17-.15-.18-.01 0-.04 0-.07.02-.15.05-.57.21-.71.27l.09-.94c.02-.24-.17-.25-.21-.04-.18.84-.29 1.97-.9 2.34.05-.4.44-3.36.5-3.76.02-.09.02-.16.12-.2.08-.02.14 0 .21.07l.99.91c.04.05.1.07.16.05s.1-.07.11-.13l.14-1.12s0-.09-.04-.12a.16.16 0 0 0-.11-.05h-.15l.04-.35c.11-.05.41-.19.56-.21h.07c.09 0 .17.02.23.07s.09.11.11.2l.17 1.59c0 .06.05.11.11.13.06.02.12 0 .16-.05l.99-.91c.07-.07.14-.1.21-.07.11.04.11.11.12.2.05.4.45 3.36.5 3.76-.6-.37-.71-1.5-.9-2.34-.04-.21-.23-.2-.21.04l.09.94a33.2 33.2 0 0 1-.71-.27c-.02 0-.05-.02-.07-.02-.12 0-.17.11-.15.18.09.41.43 1.7.58 2.29m-7.29 8.6c-.11.04-.34.06-.46.05-.03 0-.06 0-.08-.02h-.02l-.24-1.16c-.04-.21-.22-.2-.2.04l.12 1.18c-.03.06-.21.35-.37.35s-.34-.29-.37-.35l.12-1.18c.02-.23-.15-.25-.2-.04l-.24 1.14h-.02s-.05.02-.08.03c-.12.01-.35-.01-.46-.05.15-.59.49-1.89.59-2.3.02-.07-.02-.17-.15-.18-.01 0-.04 0-.07.02-.15.05-.57.21-.71.27l.09-.94c.02-.23-.17-.25-.21-.04-.18.84-.29 1.96-.9 2.34.05-.4.44-3.36.5-3.76.02-.09.02-.16.12-.2.08-.02.14 0 .21.07l.99.91c.04.05.1.07.16.05s.1-.07.11-.13l.14-1.13s0-.09-.04-.12a.16.16 0 0 0-.11-.05h-.15l.04-.35c.11-.05.41-.19.56-.21H95c.08 0 .17.02.23.07s.09.11.11.2l.17 1.59c0 .06.05.11.11.13.06.02.12 0 .16-.05 0 0 .99-.91 1-.91.07-.07.14-.1.21-.07.11.04.11.11.12.2.05.4.45 3.36.5 3.76-.6-.37-.71-1.5-.9-2.34-.04-.21-.23-.2-.21.04l.09.94a33.2 33.2 0 0 1-.71-.27c-.02 0-.05-.02-.07-.02-.12 0-.17.11-.15.18.09.42.43 1.71.58 2.31m7.29 0c-.11.04-.34.06-.46.05-.03 0-.06 0-.08-.02h-.02l-.24-1.16c-.04-.21-.22-.2-.2.04l.12 1.18c-.03.06-.21.35-.37.35s-.34-.29-.37-.35l.12-1.18c.02-.23-.15-.25-.2-.04l-.24 1.14h-.02s-.05.02-.08.03c-.12.01-.35-.01-.46-.05.15-.59.49-1.89.59-2.3.02-.07-.02-.17-.15-.18-.01 0-.04 0-.07.02-.15.05-.57.21-.71.27l.09-.94c.02-.23-.17-.25-.21-.04-.18.84-.29 1.96-.9 2.34.05-.4.44-3.36.5-3.76.02-.09.02-.16.12-.2.08-.02.14 0 .21.07l.99.91c.04.05.1.07.16.05s.1-.07.11-.13l.14-1.13s0-.09-.04-.12a.16.16 0 0 0-.11-.05h-.15l.04-.35c.11-.05.41-.19.56-.21h.07c.09 0 .17.02.23.07s.09.11.11.2l.17 1.59c0 .06.05.11.11.13.06.02.12 0 .16-.05l.99-.91c.07-.07.14-.1.21-.07.11.04.11.11.12.2.05.4.45 3.36.5 3.76-.6-.37-.71-1.5-.9-2.34-.04-.21-.23-.2-.21.04l.09.94a33.2 33.2 0 0 1-.71-.27c-.02 0-.05-.02-.07-.02-.12 0-.17.11-.15.18.09.42.43 1.71.58 2.31m15.9-8.6c-.11.04-.34.06-.46.05-.03 0-.06 0-.08-.02h-.02l-.24-1.16c-.04-.21-.22-.2-.2.04l.12 1.18c-.03.06-.21.35-.37.35s-.34-.29-.37-.35l.12-1.18c.02-.23-.15-.25-.2-.04l-.24 1.15h-.02s-.05.02-.08.03c-.12.01-.35-.01-.46-.05.15-.59.49-1.89.59-2.3.02-.07-.02-.17-.15-.18-.01 0-.04 0-.07.02-.15.05-.57.21-.71.27l.09-.94c.02-.24-.17-.25-.21-.04-.18.84-.29 1.97-.9 2.34.05-.4.44-3.36.5-3.76.02-.09.02-.16.12-.2.08-.02.14 0 .21.07l.99.91c.04.05.1.07.16.05s.1-.07.11-.13l.14-1.12s0-.09-.04-.12a.16.16 0 0 0-.11-.05h-.15l.04-.35c.11-.05.41-.19.56-.21h.07c.09 0 .17.02.23.07s.09.11.11.2l.17 1.59c0 .06.05.11.11.13.06.02.12 0 .16-.05l.99-.91c.07-.07.14-.1.21-.07.11.04.11.11.12.2.05.4.45 3.36.5 3.76-.6-.37-.71-1.5-.9-2.34-.04-.21-.23-.2-.21.04l.09.94c-.13-.05-.56-.21-.71-.27-.02 0-.05-.02-.07-.02-.12 0-.17.11-.15.18.08.41.43 1.7.58 2.29m7.29 0c-.11.04-.34.06-.46.05-.03 0-.06 0-.08-.02h-.02l-.24-1.16c-.04-.21-.22-.2-.2.04l.12 1.18c-.03.06-.21.35-.37.35s-.34-.29-.37-.35l.12-1.18c.02-.23-.15-.25-.2-.04l-.24 1.15h-.02s-.05.02-.08.03c-.12.01-.35-.01-.46-.05.15-.59.49-1.89.59-2.3.02-.07-.02-.17-.15-.18-.01 0-.04 0-.07.02-.15.05-.57.21-.71.27l.09-.94c.02-.24-.17-.25-.21-.04-.18.84-.29 1.97-.9 2.34.05-.4.44-3.36.5-3.76.02-.09.02-.16.12-.2.08-.02.14 0 .21.07l1 .91c.04.05.1.07.16.05s.1-.07.11-.13l.14-1.12s0-.09-.04-.12a.16.16 0 0 0-.11-.05h-.15l.04-.35c.11-.05.41-.19.56-.21h.07c.08 0 .17.02.23.07s.09.11.11.2l.17 1.59c0 .06.05.11.11.13.06.02.12 0 .16-.05 0 0 .99-.91 1-.91.07-.07.14-.1.21-.07.11.04.11.11.12.2.05.4.45 3.36.5 3.76-.6-.37-.71-1.5-.9-2.34-.04-.21-.23-.2-.21.04l.09.94a33.2 33.2 0 0 1-.71-.27c-.02 0-.05-.02-.07-.02-.12 0-.17.11-.15.18.08.41.43 1.7.58 2.29m-7.29 8.6c-.11.04-.34.06-.46.05-.03 0-.06 0-.08-.02h-.02l-.24-1.16c-.04-.21-.22-.2-.2.04l.12 1.18c-.03.06-.21.35-.37.35s-.34-.29-.37-.35l.12-1.18c.02-.23-.15-.25-.2-.04l-.24 1.14h-.02s-.05.02-.08.03c-.12.01-.35-.01-.46-.05.15-.59.49-1.89.59-2.3.02-.07-.02-.17-.15-.18-.01 0-.04 0-.07.02-.15.05-.57.21-.71.27l.09-.94c.02-.23-.17-.25-.21-.04-.18.84-.29 1.96-.9 2.34.05-.4.44-3.36.5-3.76.02-.09.02-.16.12-.2.08-.02.14 0 .21.07l.99.91c.04.05.1.07.16.05s.1-.07.11-.13l.14-1.13s0-.09-.04-.12a.16.16 0 0 0-.11-.05h-.15l.04-.35c.11-.05.41-.19.56-.21h.07c.09 0 .17.02.23.07s.09.11.11.2l.17 1.59c0 .06.05.11.11.13.06.02.12 0 .16-.05l.99-.91c.07-.07.14-.1.21-.07.11.04.11.11.12.2.05.4.45 3.36.5 3.76-.6-.37-.71-1.5-.9-2.34-.04-.21-.23-.2-.21.04l.09.94c-.13-.05-.56-.21-.71-.27-.02 0-.05-.02-.07-.02-.12 0-.17.11-.15.18.08.42.43 1.71.58 2.31m7.29 0c-.11.04-.34.06-.46.05-.03 0-.06 0-.08-.02h-.02l-.24-1.16c-.04-.21-.22-.2-.2.04l.12 1.18c-.03.06-.21.35-.37.35s-.34-.29-.37-.35l.12-1.18c.02-.23-.15-.25-.2-.04l-.24 1.14h-.02s-.05.02-.08.03c-.12.01-.35-.01-.46-.05.15-.59.49-1.89.59-2.3.02-.07-.02-.17-.15-.18-.01 0-.04 0-.07.02-.15.05-.57.21-.71.27l.09-.94c.02-.23-.17-.25-.21-.04-.18.84-.29 1.96-.9 2.34.05-.4.44-3.36.5-3.76.02-.09.02-.16.12-.2.08-.02.14 0 .21.07l1 .91c.04.05.1.07.16.05s.1-.07.11-.13l.14-1.13s0-.09-.04-.12a.16.16 0 0 0-.11-.05h-.15l.04-.35c.11-.05.41-.19.56-.21h.07c.08 0 .17.02.23.07s.09.11.11.2l.17 1.59c0 .06.05.11.11.13.06.02.12 0 .16-.05 0 0 .99-.91 1-.91.07-.07.14-.1.21-.07.11.04.11.11.12.2.05.4.45 3.36.5 3.76-.6-.37-.71-1.5-.9-2.34-.04-.21-.23-.2-.21.04l.09.94a33.2 33.2 0 0 1-.71-.27c-.02 0-.05-.02-.07-.02-.12 0-.17.11-.15.18.08.42.43 1.71.58 2.31m-30.48 17.5c-.11.04-.34.06-.46.05-.03 0-.06 0-.08-.01h-.02l-.24-1.16c-.04-.21-.22-.2-.2.04l.12 1.19c-.03.06-.21.35-.37.35s-.34-.29-.37-.35l.12-1.19c.02-.23-.15-.25-.2-.04l-.24 1.14h-.02s-.05.02-.08.02c-.12.01-.35 0-.46-.05.15-.59.49-1.89.59-2.3.02-.07-.02-.17-.15-.18-.01 0-.04 0-.07.02-.15.05-.57.21-.71.27l.09-.94c.02-.23-.17-.25-.21-.04-.18.84-.29 1.96-.9 2.34.05-.4.44-3.36.5-3.76.02-.09.02-.16.12-.2.08-.02.14 0 .21.07l.99.91c.04.05.1.07.16.05s.1-.07.11-.13l.14-1.13s0-.09-.04-.12a.16.16 0 0 0-.11-.05h-.15l.04-.35c.11-.05.41-.19.56-.21h.01l.06-.01c.08 0 .17.02.23.07s.09.11.11.2l.17 1.59c0 .06.05.11.11.13.06.02.12 0 .16-.05 0 0 .99-.91 1-.91.07-.07.14-.1.21-.07.11.04.11.11.12.2.05.4.45 3.36.5 3.76-.6-.37-.71-1.5-.9-2.34-.04-.21-.23-.2-.21.04l.09.94a33.2 33.2 0 0 1-.71-.27c-.02 0-.05-.02-.07-.02-.12 0-.17.11-.15.18.09.43.43 1.72.58 2.31m7.29 0c-.11.04-.34.06-.46.05-.03 0-.06 0-.08-.01h-.02l-.24-1.16c-.04-.21-.22-.2-.2.04l.12 1.19c-.03.06-.21.35-.37.35s-.34-.29-.37-.35l.12-1.19c.02-.23-.15-.25-.2-.04l-.24 1.14h-.02s-.05.02-.08.02c-.12.01-.35 0-.46-.05.15-.59.49-1.89.59-2.3.02-.07-.02-.17-.15-.18-.01 0-.04 0-.07.02-.15.05-.57.21-.71.27l.09-.94c.02-.23-.17-.25-.21-.04-.18.84-.29 1.96-.9 2.34.05-.4.44-3.36.5-3.76.02-.09.02-.16.12-.2.08-.02.14 0 .21.07l.99.91c.04.05.1.07.16.05s.1-.07.11-.13l.14-1.13s0-.09-.04-.12a.16.16 0 0 0-.11-.05h-.15l.04-.35c.11-.05.41-.19.56-.21h.01l.06-.01c.09 0 .17.02.23.07s.09.11.11.2l.17 1.59c0 .06.05.11.11.13.06.02.12 0 .16-.05l.99-.91c.07-.07.14-.1.21-.07.11.04.11.11.12.2.05.4.45 3.36.5 3.76-.6-.37-.71-1.5-.9-2.34-.04-.21-.23-.2-.21.04l.09.94a33.2 33.2 0 0 1-.71-.27c-.02 0-.05-.02-.07-.02-.12 0-.17.11-.15.18.09.43.43 1.72.58 2.31m-7.29 8.6c-.11.04-.34.06-.46.05-.03 0-.06 0-.08-.02h-.02l-.24-1.16c-.04-.21-.22-.2-.2.04l.12 1.19c-.03.06-.21.35-.37.35s-.34-.29-.37-.35l.12-1.19c.02-.23-.15-.25-.2-.04l-.24 1.14h-.02s-.05.02-.08.03c-.12.01-.35 0-.46-.05.15-.59.49-1.89.59-2.3.02-.07-.02-.17-.15-.18-.01 0-.04 0-.07.02-.15.05-.57.21-.71.27l.09-.94c.02-.24-.17-.25-.21-.04-.18.84-.29 1.97-.9 2.34.05-.4.44-3.36.5-3.76.02-.09.02-.16.12-.2.08-.02.14 0 .21.07l.99.91c.04.05.1.07.16.05s.1-.07.11-.13l.14-1.12s0-.09-.04-.12a.16.16 0 0 0-.11-.05h-.15l.04-.35c.11-.05.41-.19.56-.21h.07c.08 0 .17.02.23.07s.09.11.11.2l.17 1.59c0 .06.05.11.11.13.06.02.12 0 .16-.05 0 0 .99-.91 1-.91.07-.07.14-.1.21-.07.11.04.11.11.12.2.05.4.45 3.36.5 3.76-.6-.37-.71-1.5-.9-2.34-.04-.21-.23-.2-.21.04l.09.94a33.2 33.2 0 0 1-.71-.27c-.02 0-.05-.02-.07-.02-.12 0-.17.11-.15.18.09.41.43 1.71.58 2.3m7.29 0c-.11.04-.34.06-.46.05-.03 0-.06 0-.08-.02h-.02l-.24-1.16c-.04-.21-.22-.2-.2.04l.12 1.19c-.03.06-.21.35-.37.35s-.34-.29-.37-.35l.12-1.19c.02-.23-.15-.25-.2-.04l-.24 1.14h-.02s-.05.02-.08.03c-.12.01-.35 0-.46-.05.15-.59.49-1.89.59-2.3.02-.07-.02-.17-.15-.18-.01 0-.04 0-.07.02-.15.05-.57.21-.71.27l.09-.94c.02-.24-.17-.25-.21-.04-.18.84-.29 1.97-.9 2.34.05-.4.44-3.36.5-3.76.02-.09.02-.16.12-.2.08-.02.14 0 .21.07l.99.91c.04.05.1.07.16.05s.1-.07.11-.13l.14-1.12s0-.09-.04-.12a.16.16 0 0 0-.11-.05h-.15l.04-.35c.11-.05.41-.19.56-.21h.07c.09 0 .17.02.23.07s.09.11.11.2l.17 1.59c0 .06.05.11.11.13.06.02.12 0 .16-.05l.99-.91c.07-.07.14-.1.21-.07.11.04.11.11.12.2.05.4.45 3.36.5 3.76-.6-.37-.71-1.5-.9-2.34-.04-.21-.23-.2-.21.04l.09.94a33.2 33.2 0 0 1-.71-.27c-.02 0-.05-.02-.07-.02-.12 0-.17.11-.15.18.09.41.43 1.71.58 2.3m15.9-8.6c-.11.04-.34.06-.46.05-.03 0-.06 0-.08-.01h-.02l-.24-1.16c-.04-.21-.22-.2-.2.04l.12 1.19c-.03.06-.21.35-.37.35s-.34-.29-.37-.35l.12-1.19c.02-.23-.15-.25-.2-.04l-.24 1.14h-.02s-.05.02-.08.02c-.12.01-.35 0-.46-.05.15-.59.49-1.89.59-2.3.02-.07-.02-.17-.15-.18-.01 0-.04 0-.07.02-.15.05-.57.21-.71.27l.09-.94c.02-.23-.17-.25-.21-.04-.18.84-.29 1.96-.9 2.34.05-.4.44-3.36.5-3.76.02-.09.02-.16.12-.2.08-.02.14 0 .21.07l.99.91c.04.05.1.07.16.05s.1-.07.11-.13l.14-1.13s0-.09-.04-.12a.16.16 0 0 0-.11-.05h-.15l.04-.35c.11-.05.41-.19.56-.21h.01l.06-.01c.09 0 .17.02.23.07s.09.11.11.2l.17 1.59c0 .06.05.11.11.13.06.02.12 0 .16-.05l.99-.91c.07-.07.14-.1.21-.07.11.04.11.11.12.2.05.4.45 3.36.5 3.76-.6-.37-.71-1.5-.9-2.34-.04-.21-.23-.2-.21.04l.09.94c-.13-.05-.56-.21-.71-.27-.02 0-.05-.02-.07-.02-.12 0-.17.11-.15.18.08.43.43 1.72.58 2.31m7.29 0c-.11.04-.34.06-.46.05-.03 0-.06 0-.08-.01h-.02l-.24-1.16c-.04-.21-.22-.2-.2.04l.12 1.19c-.03.06-.21.35-.37.35s-.34-.29-.37-.35l.12-1.19c.02-.23-.15-.25-.2-.04l-.24 1.14h-.02s-.05.02-.08.02c-.12.01-.35 0-.46-.05.15-.59.49-1.89.59-2.3.02-.07-.02-.17-.15-.18-.01 0-.04 0-.07.02-.15.05-.57.21-.71.27l.09-.94c.02-.23-.17-.25-.21-.04-.18.84-.29 1.96-.9 2.34.05-.4.44-3.36.5-3.76.02-.09.02-.16.12-.2.08-.02.14 0 .21.07l1 .91c.04.05.1.07.16.05s.1-.07.11-.13l.14-1.13s0-.09-.04-.12a.16.16 0 0 0-.11-.05h-.15l.04-.35c.11-.05.41-.19.56-.21h.01l.06-.01c.08 0 .17.02.23.07s.09.11.11.2l.17 1.59c0 .06.05.11.11.13.06.02.12 0 .16-.05 0 0 .99-.91 1-.91.07-.07.14-.1.21-.07.11.04.11.11.12.2.05.4.45 3.36.5 3.76-.6-.37-.71-1.5-.9-2.34-.04-.21-.23-.2-.21.04l.09.94a33.2 33.2 0 0 1-.71-.27c-.02 0-.05-.02-.07-.02-.12 0-.17.11-.15.18.08.43.43 1.72.58 2.31m-7.29 8.6c-.11.04-.34.06-.46.05-.03 0-.06 0-.08-.02h-.02l-.24-1.16c-.04-.21-.22-.2-.2.04l.12 1.19c-.03.06-.21.35-.37.35s-.34-.29-.37-.35l.12-1.19c.02-.23-.15-.25-.2-.04l-.24 1.14h-.02s-.05.02-.08.03c-.12.01-.35 0-.46-.05.15-.59.49-1.89.59-2.3.02-.07-.02-.17-.15-.18-.01 0-.04 0-.07.02-.15.05-.57.21-.71.27l.09-.94c.02-.24-.17-.25-.21-.04-.18.84-.29 1.97-.9 2.34.05-.4.44-3.36.5-3.76.02-.09.02-.16.12-.2.08-.02.14 0 .21.07l.99.91c.04.05.1.07.16.05s.1-.07.11-.13l.14-1.12s0-.09-.04-.12a.16.16 0 0 0-.11-.05h-.15l.04-.35c.11-.05.41-.19.56-.21h.07c.09 0 .17.02.23.07s.09.11.11.2l.17 1.59c0 .06.05.11.11.13.06.02.12 0 .16-.05l.99-.91c.07-.07.14-.1.21-.07.11.04.11.11.12.2.05.4.45 3.36.5 3.76-.6-.37-.71-1.5-.9-2.34-.04-.21-.23-.2-.21.04l.09.94c-.13-.05-.56-.21-.71-.27-.02 0-.05-.02-.07-.02-.12 0-.17.11-.15.18.08.41.43 1.71.58 2.3m7.29 0c-.11.04-.34.06-.46.05-.03 0-.06 0-.08-.02h-.02l-.24-1.16c-.04-.21-.22-.2-.2.04l.12 1.19c-.03.06-.21.35-.37.35s-.34-.29-.37-.35l.12-1.19c.02-.23-.15-.25-.2-.04l-.24 1.14h-.02s-.05.02-.08.03c-.12.01-.35 0-.46-.05.15-.59.49-1.89.59-2.3.02-.07-.02-.17-.15-.18-.01 0-.04 0-.07.02-.15.05-.57.21-.71.27l.09-.94c.02-.24-.17-.25-.21-.04-.18.84-.29 1.97-.9 2.34.05-.4.44-3.36.5-3.76.02-.09.02-.16.12-.2.08-.02.14 0 .21.07l1 .91c.04.05.1.07.16.05s.1-.07.11-.13l.14-1.12s0-.09-.04-.12a.16.16 0 0 0-.11-.05h-.15l.04-.35c.11-.05.41-.19.56-.21h.07c.08 0 .17.02.23.07s.09.11.11.2l.17 1.59c0 .06.05.11.11.13.06.02.12 0 .16-.05 0 0 .99-.91 1-.91.07-.07.14-.1.21-.07.11.04.11.11.12.2.05.4.45 3.36.5 3.76-.6-.37-.71-1.5-.9-2.34-.04-.21-.23-.2-.21.04l.09.94a33.2 33.2 0 0 1-.71-.27c-.02 0-.05-.02-.07-.02-.12 0-.17.11-.15.18.08.41.43 1.71.58 2.3"/></svg>
