<svg xmlns="http://www.w3.org/2000/svg" xmlns:xlink="http://www.w3.org/1999/xlink" viewBox="0 0 315 129.8"><path id="ullogo_txt" d="M138.3 16.7h3.2v15.7c0 4.1-2.9 8.2-9.4 8.2-5.9 0-9.4-3-9.4-8V16.7h3.6v15.4c0 4 2 5.9 6.2 5.9 4.1 0 6-3 6-5.9V16.7h-.2zm13.3 0h-3.1v23.4h3V22.2l14 17.9h3.2V16.7h-3.1v18.1l-14-18.1zm28.3 0v23.4h-3.5V16.7h3.5zm5 0h3.6l5.8 17.6 6.4-17.6h3l-8.9 23.4H193l-8.1-23.4zm37.5 0v2.5H212v7.6h8.3v2.5H212v8.4h10.4v2.5h-14V16.7h14zM238 29.1l.4-.1c1.8-.5 4.4-3.3 4.4-6.4 0-2.8-2.6-5.9-8.3-5.9H228v23.4h3.6V18.9h2.5c3.8 0 5.1 2.2 5.1 4.1 0 2-1.6 4.7-5.2 4.7h-.9l7.9 12.4h4.2l-7.2-11zm21.7 5.5c0-2.2-2.1-3.5-4.5-4.9l-.8-.5c-2.7-1.6-5.5-3.7-5.5-7 0-3.4 3-6 7-6 3.4 0 5.4.8 6.2 1.2-.1.2-.9 2.1-1 2.3-.8-.4-2.4-1-4.6-1-2.5 0-4.1 1.1-4.1 2.9 0 2.2 1.8 3.3 4.1 4.7l1 .6.1.1c2.3 1.5 5.9 3.7 5.9 6.9 0 4-4.3 6.7-8.3 6.7-3.8 0-6-1.1-6.9-1.5.1-.2.9-2 1-2.2 1 .5 3 1.3 6 1.3 2.4-.1 4.4-1.7 4.4-3.6zm13.2-17.9v23.4h-3.5V16.7h3.5zm23.5 0v2.5h-7.7v21h-3.6v-21h-7.7v-2.5h19zm8.2 2.4v7.6h8.3v2.5h-8.3v8.4H315v2.5h-14V16.7h14v2.5h-10.4v-.1zm6.9-10.3l1.4 2.1-6 3.3-.8-1.3 5.4-4.1zm-84.6 40.6v.2c5 1.9 2.3 8.3.1 13.8l-11 27.8-16.1-41.8h-10.7v.2c3.1 2.4 4.8 7.1 6.3 11.1l15.3 39.6h7.7L239 49.4h-12.1zM315 92.7c-3 1.4-6.2 2-9.9 2h-11V49.4h-11.9v.2c3.7 1.3 3.6 7.1 3.6 10.7V100c-4-2-6-6.6-7.9-11l-16.8-39.7h-12.8v.2c3.8 1.1 2.4 4.4 1.2 7.2L236 89c-1.8 4.4-3.8 9-7.9 11v.2h10.1l5.2-13.5h24.8l5.4 13.5H315v-7.5zm-69.2-11.5L255.9 56l10.3 25.2h-20.4zm-52.1 7.9l-16.8-39.7h-12.8v.2c3.8 1.1 2.4 4.4 1.2 7.2l-13.5 32.3-2.1 4.7c-1.9.6-4 .9-6.2.9h-11V49.4h-11.9v.2c3.7 1.3 3.6 7.1 3.6 10.7v40h29.9l5.2-13.5h24.8l5.3 13.5h12.2v-.2c-4.2-2.1-6-6.6-7.9-11zm-32.3-7.9L171.5 56l10.3 25.2h-20.4zM0 0v101.4c0 8.7 6.7 15.6 15.3 15.6h24.1c3.2 0 7.4 2.2 9.5 8.3l1.2 3.4c.3.7.7 1.1 1.2 1.1s.9-.4 1.2-1.1l1.2-3.4c2.1-6.1 6.3-8.3 9.5-8.3h24.1c8.6 0 15.3-6.8 15.3-15.6V0H0z"/><g id="ullogo_draw"><path d="M61.3 2.4H2.4v100.5h.1c.7 6.8 6.3 11.6 12.8 11.6h24.1c.9 0 1.8.1 2.7.4v-12h18.2v12c.9-.3 1.9-.4 2.7-.4h24.1c7 0 12.9-5.5 12.9-13.1v-99H61.3z" fill="#eb212e"/><path d="M60.3 49.4v-47H42.1v47H2.4v18.2h39.7v47.3c3.4 1 7.1 3.8 9.1 9.5 2-5.7 5.6-8.6 9.1-9.5V67.6H100V49.4H60.3z" fill="#ffca30"/><use href="#ullogo_a"/><use x="18.2" href="#ullogo_a"/><use y="21.2" href="#ullogo_a"/><use y="21.2" x="18.2" href="#ullogo_a"/><use x="57.9" href="#ullogo_a"/><use x="76.1" href="#ullogo_a"/><use x="57.9" y="21.2" href="#ullogo_a"/><use x="76.1" y="21.2" href="#ullogo_a"/><use y="65" href="#ullogo_a"/><use y="65" x="18.2" href="#ullogo_a"/><use y="86.4" href="#ullogo_a"/><use y="86.4" x="18.2" href="#ullogo_a"/><use y="65" x="57.9" href="#ullogo_a"/><use y="65" x="76.1" href="#ullogo_a"/><use x="57.9" y="86.4" href="#ullogo_a"/><use x="76.1" y="86.4" href="#ullogo_a"/><use href="#ullogo_s"/><use y="-32.5" href="#ullogo_s"/><use y="-65.1" href="#ullogo_s"/><use y="-32.5" x="-28.9" href="#ullogo_s"/><use y="-32.5" x="29" href="#ullogo_s"/></g><defs><g id="ullogo_a"><path d="M17.1 21.8c.1.3-.1.5-.3.6-.4.2-1.6.3-2.1.1 0 0-.6 1.1-1.5 1.1s-1.5-1.1-1.5-1.1c-.5.1-1.7.1-2.1-.1-.2-.1-.4-.4-.3-.6l1.3-5.2-1.6.6c-.3 1.2-1.1 3.2-2.6 3.3-.2 0-.5-.1-.5-.3l1.3-10c.1-.6.3-.9.8-1.1s.9 0 1.4.4c.4.4 1.9 1.7 1.9 1.7l.2-1.6h-.4c-.2 0-.4-.2-.4-.4l.2-1.5c0-.2.1-.3.2-.3 0 0 .6-.3 1.2-.5.5-.2.9-.2.9-.2.4 0 .8.1 1 .3.3.2.5.6.5 1l.3 3.2 1.9-1.7c.5-.5.9-.6 1.4-.4s.7.5.8 1.2l1.3 10c0 .2-.3.3-.5.3-1.5-.1-2.3-2.1-2.6-3.3l-1.6-.6 1.4 5.1z"/><path d="M16.3 21.8c-.3.1-.8.2-1.1.2H15l-.7-3c-.1-.5-.5-.5-.5.1l.3 3c-.1.2-.5.9-.9.9s-.9-.7-.9-.9l.3-3c.1-.6-.4-.6-.5-.1l-.6 2.9h-.2c-.3 0-.9 0-1.1-.1l1.5-5.7c0-.2-.1-.4-.4-.4h-.2c-.4.1-1.4.5-1.8.7l.2-2.4c.1-.6-.4-.6-.5-.1-.5 2.1-.7 4.9-2.2 5.8L8 10.3c0-.2 0-.4.3-.5.2-.1.4 0 .5.2l2.5 2.3c.1.1.3.2.4.1.1 0 .3-.2.3-.3l.3-2.8c0-.1 0-.2-.1-.3s-.2-.1-.3-.1h-.4l.1-.9c.3-.1 1-.5 1.4-.5h.1c.2 0 .4.1.6.2s.3.2.3.4l.4 4c0 .2.1.3.3.3.1 0 .3 0 .4-.1l2.5-2.3c.2-.2.3-.2.5-.2.3.1.3.3.3.5l1.2 9.4c-1.5-.9-1.8-3.7-2.2-5.8-.1-.5-.6-.5-.5.1l.2 2.4-1.8-.7h-.2c-.3 0-.4.3-.4.4.4 1 1.2 4.3 1.6 5.7z" fill="#dcddde"/></g><g id="ullogo_s"><path d="M51.2 97.7c.8 0 1.5-.4 1.9-1 .3.2.7.2 1 .2 1.1 0 2.1-.9 2.2-2a2.22 2.22 0 002.2-2.2c0-.5-.2-1-.5-1.4l-2.5-3v-1.2a1.11 1.11 0 00-1.1-1.1h-1.1l-1-1c-.3-.3-.6-.4-1-.4s-.7.1-1 .4l-1 1h-1.1a1.11 1.11 0 00-1.1 1.1v1.2l-2.5 3c-.3.4-.5.9-.5 1.4a2.22 2.22 0 002.2 2.2c.1 1.1 1 2 2.2 2 .4 0 .7-.1 1-.2.3.6 1 1 1.7 1z"/><path d="M51.2 97c.5 0 1-.3 1.2-.7l-.4-4c0-.2.1-.3.3-.3s.3.1.3.2l.7 3.8c.2.1.5.2.7.2.8 0 1.4-.6 1.5-1.4L53.9 91c-.1-.1 0-.3.2-.4.1-.1.3 0 .4.1l1.8 3.4a1.54 1.54 0 001.5-1.5c0-.3 0-.6-.2-.8l-2.8-3.4v-1.5c0-.2-.1-.3-.3-.3h-1.4l-1.2-1.2c-.1-.1-.3-.2-.5-.2s-.4.1-.5.2l-1.2 1.2h-1.4c-.2 0-.3.1-.3.3v1.5L45 92c-.2.2-.2.5-.2.8a1.54 1.54 0 001.5 1.5l1.8-3.4c.1-.1.2-.2.4-.1.1.1.2.2.2.4L47 94.9c.1.8.7 1.4 1.5 1.4.3 0 .5-.1.7-.2l.7-3.8c0-.2.2-.3.3-.2.2 0 .3.2.3.3l-.4 4c.2.3.6.6 1.1.6z" fill="#00afec"/></g></defs></svg>