<svg aria-hidden="true" aria-role="presentation" class="logo-ul-city" viewBox="0 0 435 140"><path d="M156.5 68.16c.58-.41.99-.99 1.21-1.75l-1.46-.49c-.29.91-.91 1.37-1.87 1.37-.73 0-1.29-.29-1.67-.87-.38-.58-.58-1.4-.58-2.46 0-1.07.19-1.9.58-2.48.38-.59.96-.88 1.73-.88.84 0 1.42.41 1.73 1.22l1.48-.54c-.52-1.43-1.59-2.14-3.22-2.14-1.21 0-2.16.43-2.85 1.28-.69.85-1.04 2.03-1.04 3.55 0 1.51.34 2.69 1.03 3.54.68.85 1.61 1.27 2.79 1.27.84-.01 1.55-.22 2.14-.62m-13.31-6.96c.46-.45 1.04-.67 1.75-.67.59 0 1.1.21 1.54.64.44.43.66 1.11.67 2.06h-4.72c.05-.91.3-1.58.76-2.03m4.71 6.38-.95-1.06c-.55.55-1.21.83-1.98.83-.7 0-1.27-.25-1.74-.76-.46-.51-.72-1.19-.78-2.03h6.23c.04-.36.05-.71.05-1.04 0-1.44-.36-2.53-1.07-3.27-.71-.74-1.62-1.11-2.73-1.11-1.24 0-2.23.43-2.97 1.28-.74.85-1.12 2.03-1.12 3.53 0 1.43.37 2.59 1.11 3.48.74.89 1.73 1.34 2.98 1.34 1.19 0 2.18-.4 2.97-1.19m-14.15-.6c-.38-.22-.69-.53-.92-.91V61.8c.18-.31.46-.59.85-.85.38-.25.82-.38 1.3-.38.78 0 1.37.29 1.77.86.4.58.6 1.41.6 2.5 0 1.06-.2 1.88-.6 2.48-.4.59-.99.89-1.77.89-.43.01-.84-.1-1.23-.32m4.21.54c.67-.83 1-2.03 1-3.57 0-1.5-.35-2.68-1.04-3.53-.7-.85-1.62-1.28-2.77-1.28-.92 0-1.69.34-2.3 1.01v-4.59l-1.57.74v12.26h1.57v-.79c.7.67 1.48 1.01 2.36 1.01 1.16-.01 2.08-.43 2.75-1.26m-14.57-6.32c.45-.45 1.04-.67 1.75-.67.59 0 1.1.21 1.54.64.44.43.66 1.11.68 2.06h-4.72c.04-.91.29-1.58.75-2.03m4.71 6.38-.95-1.06c-.55.55-1.21.83-1.98.83-.7 0-1.27-.25-1.74-.76-.46-.51-.72-1.19-.78-2.03h6.23c.04-.36.05-.71.05-1.04 0-1.44-.36-2.53-1.07-3.27-.71-.74-1.62-1.11-2.73-1.11-1.24 0-2.23.43-2.97 1.28-.75.85-1.12 2.03-1.12 3.53 0 1.43.37 2.59 1.11 3.48.74.89 1.73 1.34 2.98 1.34 1.19 0 2.18-.4 2.97-1.19m-3.42-9.4 3.2-2.81h-2.23l-2.56 2.81h1.59zm-6.08 10.37v-9.2h-1.57v5.58c0 1.58-.71 2.38-2.12 2.38-.61 0-1.1-.2-1.45-.58-.35-.39-.53-1-.53-1.83v-5.54h-1.57v5.31c0 1.44.28 2.48.84 3.13.56.65 1.39.97 2.51.97.98 0 1.76-.37 2.32-1.1v.88h1.57zm-16.95-1.69c-.5-.29-.89-.68-1.17-1.17-.28-.49-.49-1.03-.62-1.6-.13-.58-.2-1.19-.2-1.84 0-.61.07-1.2.21-1.76.14-.56.34-1.1.62-1.61.28-.51.66-.92 1.16-1.22.5-.31 1.08-.46 1.74-.46.88 0 1.6.26 2.19.77.58.52.98 1.14 1.21 1.86.22.73.33 1.53.33 2.42 0 1.64-.4 2.94-1.19 3.89l-.86-1.3-1.19.81.9 1.35c-.38.19-.85.29-1.39.29-.66 0-1.24-.14-1.74-.43m4.01 1.44.97 1.44 1.15-.81-.95-1.4c1.28-1.19 1.93-2.95 1.93-5.27 0-.65-.06-1.27-.17-1.87-.11-.6-.31-1.19-.58-1.76-.27-.58-.61-1.07-1.01-1.49-.4-.42-.91-.76-1.53-1.01s-1.31-.38-2.08-.38c-.95 0-1.78.19-2.49.57-.71.38-1.27.89-1.67 1.53-.4.64-.7 1.33-.89 2.07-.19.74-.29 1.52-.29 2.35 0 .83.1 1.61.29 2.35.19.74.49 1.43.89 2.07.4.64.96 1.15 1.67 1.53.71.38 1.54.57 2.49.57.85-.02 1.61-.18 2.27-.49M86.2 61.2c.46-.45 1.04-.67 1.75-.67.59 0 1.1.21 1.54.64.44.43.66 1.11.68 2.06h-4.72c.04-.91.29-1.58.75-2.03m4.72 6.38-.95-1.06c-.55.55-1.21.83-1.98.83-.7 0-1.27-.25-1.74-.76-.46-.51-.72-1.19-.78-2.03h6.23c.04-.36.05-.71.05-1.04 0-1.44-.36-2.53-1.07-3.27-.71-.74-1.62-1.11-2.73-1.11-1.24 0-2.23.43-2.97 1.28-.74.85-1.12 2.03-1.12 3.53 0 1.43.37 2.59 1.11 3.48.74.89 1.73 1.34 2.98 1.34 1.18 0 2.17-.4 2.97-1.19m-14.94-1.22c-.44-.64-.66-1.44-.66-2.41 0-1.08.21-1.91.63-2.49.42-.58 1.02-.87 1.8-.87.91 0 1.61.39 2.11 1.17v4.32c-.49.83-1.19 1.24-2.11 1.24-.74-.01-1.33-.33-1.77-.96m3.88 1.47v.72h1.57v-13l-1.57.74V60c-.65-.58-1.42-.86-2.32-.86-1.15 0-2.07.43-2.76 1.28-.69.85-1.03 2.03-1.03 3.53 0 1.49.34 2.66 1.03 3.53.68.86 1.61 1.3 2.77 1.3.94-.01 1.71-.32 2.31-.95M62.17 61.2c.46-.45 1.04-.67 1.75-.67.59 0 1.1.21 1.54.64.44.43.66 1.11.67 2.06h-4.72c.05-.91.3-1.58.76-2.03m4.72 6.38-.95-1.06c-.55.55-1.21.83-1.98.83-.7 0-1.28-.25-1.74-.76-.46-.51-.72-1.19-.78-2.03h6.23c.04-.36.05-.71.05-1.04 0-1.44-.36-2.53-1.07-3.27-.71-.74-1.62-1.11-2.73-1.11-1.24 0-2.23.43-2.97 1.28-.74.85-1.12 2.03-1.12 3.53 0 1.43.37 2.59 1.11 3.48.74.89 1.73 1.34 2.98 1.34 1.18 0 2.17-.4 2.97-1.19m-9.58.97v-13l-1.57.74v12.26h1.57zm-4.72 0v-13l-1.57.74v12.26h1.57zm-4.64-9.2h-1.57v9.2h1.57v-9.2zm.2-2.64c0-.28-.1-.51-.29-.71-.19-.2-.43-.3-.7-.3-.26 0-.49.1-.68.3a.99.99 0 0 0-.29.71c0 .26.09.49.28.68.19.19.42.29.69.29.28 0 .51-.09.7-.28.19-.19.29-.42.29-.69m-8.44 11.84 4.3-12.6h-1.67l-2.92 9.11c-.19.62-.31 1.05-.36 1.28-.04-.12-.16-.55-.38-1.28l-3.01-9.11H34l4.32 12.6h1.39zm239.41-33.01h2.13v10.63c0 2.75-1.96 5.52-6.37 5.52-3.99 0-6.37-2.02-6.37-5.42V35.54h2.4v10.43c0 2.74 1.32 4 4.16 4 2.79 0 4.04-2.01 4.04-4V35.54zm8.96 0h-2.06v15.85h2.06V39.27l9.49 12.12h2.17V35.54h-2.07v12.27zm16.76 0h2.38v15.85h-2.38zm5.74 0h2.43l3.91 11.89 4.31-11.89h2.04l-6.05 15.85H316zm25.35 0v1.67h-7.04v5.17h5.63v1.66h-5.63v5.67h7.04v1.68h-9.44V35.54zm10.52 8.4.27-.08c1.22-.36 2.98-2.23 2.98-4.35 0-1.92-1.77-3.98-5.64-3.98h-4.34v15.85h2.4V37.02h1.72c2.56 0 3.47 1.48 3.47 2.74 0 1.33-1.09 3.21-3.5 3.21h-.6l5.33 8.42h2.84l-4.93-7.45zm14.66 3.72c0-1.49-1.41-2.34-3.04-3.32l-.55-.34c-1.81-1.1-3.75-2.47-3.75-4.72 0-2.31 2.04-4.06 4.76-4.06 2.33 0 3.62.54 4.21.8-.05.11-.59 1.43-.65 1.57-.52-.24-1.63-.71-3.14-.71-1.72 0-2.79.75-2.79 1.95 0 1.46 1.21 2.21 2.74 3.15l.7.43.1.06c1.58 1 3.96 2.51 3.96 4.69 0 2.7-2.89 4.52-5.59 4.52-2.6 0-4.08-.72-4.7-1.03.06-.13.61-1.38.67-1.52l.02.01c.7.31 2 .88 4.06.88 1.65 0 2.99-1.06 2.99-2.36m6.58-12.12h2.38v15.85h-2.38zm18.28 0v1.67h-5.18v14.18h-2.4V37.21h-5.21v-1.67zm3.11 0v15.85h9.45v-1.68h-7.05v-5.67h5.64v-1.66h-5.64v-5.17h7.05v-1.67zm7.09-5.28.93 1.4-4.07 2.22-.56-.86zm-57.19 27.42v.16c3.39 1.31 1.52 5.6.05 9.31l-7.43 18.79-10.86-28.26h-7.25v.16c2.12 1.62 3.24 4.82 4.27 7.48L328.1 92.1h5.23l13.8-34.42h-8.15zm12.74 21.46 6.82-17.02 6.93 17.02h-13.75zm46.81 7.82c-2 .92-4.21 1.35-6.66 1.35h-7.43V57.68h-8.04v.16c2.52.86 2.46 4.79 2.46 7.22v26.86c-2.68-1.33-4.07-4.43-5.32-7.41l-11.37-26.83h-8.64v.16c2.59.77 1.61 2.98.82 4.86l-9.13 21.81c-1.25 2.97-2.54 6.05-5.3 7.43v.16h6.83l3.51-9.1h16.77l3.62 9.1h27.9v-5.14zm-103.8-7.82 6.82-17.02 6.93 17.02h-13.75zm21.8 5.37-11.37-26.83h-8.63v.16c2.59.77 1.61 2.98.82 4.86l-9.13 21.81c-.45 1.08-.91 2.18-1.45 3.2-1.32.39-2.72.6-4.21.6h-7.44V57.68h-8.04v.16c2.52.86 2.46 4.79 2.46 7.22V92.1h20.2l3.51-9.1h16.77l3.62 9.1h8.26v-.16c-2.87-1.45-4.11-4.45-5.37-7.43M185.6 24.28v68.55c0 5.9 4.54 10.52 10.34 10.52h16.29c2.18 0 5.01 1.47 6.43 5.6l.79 2.28c.19.47.47.77.78.77.31 0 .59-.3.78-.77l.78-2.28c1.42-4.13 4.25-5.6 6.43-5.6h16.29c5.8 0 10.34-4.62 10.34-10.52V24.28H185.6z"/><path fill="#e30513" d="M187.26 25.94h26.83v31.74h-26.83zm0 44.02v22.88c0 5.16 3.98 8.86 8.69 8.86h16.29c.59 0 1.21.08 1.85.26v-32h-26.83zm39.11-44.02h26.83v31.74h-26.83zm0 76.02c.64-.18 1.27-.26 1.86-.26h16.29c4.71 0 8.69-3.71 8.69-8.86V69.96h-26.84v32z"/><path fill="#ffc103" d="M226.37 57.68V25.94h-12.28v31.74h-26.83v12.28h26.83v32c2.33.66 4.82 2.59 6.15 6.45 1.33-3.85 3.81-5.79 6.14-6.45v-32h26.84V57.68h-26.85z"/><path d="M197.16 39.04c.06.2-.08.36-.22.44-.28.14-1.09.2-1.4.1 0 0-.41.73-1.01.73-.6 0-1.01-.73-1.01-.73-.31.1-1.12.04-1.4-.1-.15-.07-.28-.24-.22-.44.17-.65.72-2.77.9-3.51l-1.1.41c-.19.84-.78 2.18-1.77 2.26-.14.01-.35-.05-.34-.18.13-1.13.82-6.25.88-6.74.07-.48.22-.71.56-.82.33-.11.58-.03.94.29l1.27 1.17s.11-.84.14-1.11h-.26c-.14 0-.26-.12-.26-.26l.12-1.02c0-.1.06-.2.15-.24 0 0 .43-.21.79-.34.36-.14.61-.14.61-.14.29.01.51.09.69.23.21.16.34.4.37.68l.23 2.19 1.27-1.17c.36-.32.6-.4.93-.29.34.11.5.34.56.82.07.49.76 5.61.89 6.74.01.14-.2.2-.34.18-1-.07-1.59-1.42-1.78-2.26l-1.1-.41c.19.76.73 2.87.91 3.52m12.29 0c.06.2-.07.36-.22.44-.28.14-1.09.2-1.4.1 0 0-.41.73-1.01.73-.6 0-1.01-.73-1.01-.73-.31.1-1.12.04-1.4-.1-.15-.07-.28-.24-.22-.44.17-.65.72-2.77.9-3.51l-1.1.41c-.19.84-.78 2.18-1.77 2.26-.14.01-.35-.05-.34-.18.13-1.13.82-6.25.89-6.74.07-.48.22-.71.56-.82.33-.11.58-.03.93.29l1.27 1.17s.11-.84.14-1.11h-.26c-.14 0-.26-.12-.26-.26l.12-1.02c0-.1.06-.2.15-.24 0 0 .43-.21.79-.34.36-.14.61-.14.61-.14.29.01.51.09.69.23.21.16.34.4.37.68l.23 2.19 1.27-1.17c.36-.32.6-.4.94-.29.34.11.5.34.56.82.07.49.76 5.61.89 6.74.01.14-.2.2-.34.18-1-.07-1.59-1.42-1.78-2.26l-1.1-.41c.19.76.73 2.87.9 3.52m-12.29 14.5c.06.2-.08.36-.22.44-.28.14-1.09.2-1.4.1 0 0-.41.73-1.01.73-.6 0-1.01-.73-1.01-.73-.31.1-1.12.04-1.4-.1-.15-.07-.28-.24-.22-.44.17-.65.72-2.77.9-3.51l-1.1.41c-.19.84-.78 2.18-1.77 2.26-.14.01-.35-.05-.34-.18.13-1.13.82-6.25.88-6.74.07-.48.22-.71.56-.82.33-.11.58-.03.94.29l1.27 1.17s.11-.84.14-1.11h-.26c-.14 0-.26-.12-.26-.26l.12-1.02c0-.1.06-.2.15-.24 0 0 .43-.21.79-.34.36-.14.61-.14.61-.14.29.01.51.09.69.23.21.16.34.4.37.68l.23 2.19 1.27-1.17c.36-.32.6-.4.93-.29.34.11.5.34.56.82.07.49.76 5.61.89 6.74.01.14-.2.2-.34.18-1-.07-1.59-1.42-1.78-2.26l-1.1-.41c.19.75.73 2.86.91 3.52m12.29 0c.06.2-.07.36-.22.44-.28.14-1.09.2-1.4.1 0 0-.41.73-1.01.73-.6 0-1.01-.73-1.01-.73-.31.1-1.12.04-1.4-.1-.15-.07-.28-.24-.22-.44.17-.65.72-2.77.9-3.51l-1.1.41c-.19.84-.78 2.18-1.77 2.26-.14.01-.35-.05-.34-.18.13-1.13.82-6.25.89-6.74.07-.48.22-.71.56-.82.33-.11.58-.03.93.29l1.27 1.17s.11-.84.14-1.11h-.26c-.14 0-.26-.12-.26-.26l.12-1.02c0-.1.06-.2.15-.24 0 0 .43-.21.79-.34.36-.14.61-.14.61-.14.29.01.51.09.69.23.21.16.34.4.37.68l.23 2.19 1.27-1.17c.36-.32.6-.4.94-.29.34.11.5.34.56.82.07.49.76 5.61.89 6.74.01.14-.2.2-.34.18-1-.07-1.59-1.42-1.78-2.26l-1.1-.41c.19.75.73 2.86.9 3.52m26.82-14.5c.05.2-.08.36-.22.44-.28.14-1.09.2-1.4.1 0 0-.41.73-1.01.73-.6 0-1.01-.73-1.01-.73-.31.1-1.12.04-1.4-.1-.15-.07-.28-.24-.22-.44.17-.65.72-2.77.9-3.51l-1.1.41c-.19.84-.78 2.18-1.77 2.26-.14.01-.35-.05-.34-.18.13-1.13.82-6.25.88-6.74.07-.48.22-.71.56-.82.33-.11.58-.03.94.29.28.25 1.27 1.17 1.27 1.17s.11-.84.14-1.11h-.26c-.14 0-.26-.12-.26-.26l.12-1.02c0-.1.06-.2.15-.24 0 0 .43-.21.79-.34.36-.14.61-.14.61-.14.29.01.51.09.69.23.21.16.34.4.37.68l.23 2.19 1.27-1.17c.36-.32.6-.4.94-.29.34.11.5.34.56.82.07.49.76 5.61.89 6.74.01.14-.2.2-.34.18-1-.07-1.59-1.42-1.78-2.26l-1.1-.41c.19.76.73 2.87.9 3.52m12.3 0c.06.2-.08.36-.22.44-.28.14-1.09.2-1.4.1 0 0-.41.73-1.01.73-.6 0-1.01-.73-1.01-.73-.31.1-1.12.04-1.4-.1-.15-.07-.28-.24-.22-.44.17-.65.71-2.77.9-3.51l-1.1.41c-.19.84-.78 2.18-1.78 2.26-.14.01-.35-.05-.34-.18.13-1.13.82-6.25.88-6.74.07-.48.22-.71.56-.82.33-.11.58-.03.94.29.28.25 1.27 1.17 1.27 1.17s.11-.84.14-1.11h-.26c-.14 0-.26-.12-.26-.26l.12-1.02c0-.1.06-.2.15-.24 0 0 .43-.21.79-.34.36-.14.61-.14.61-.14.29.01.51.09.69.23.21.16.34.4.37.68l.23 2.19s.99-.92 1.27-1.17c.36-.32.6-.4.93-.29.34.11.5.34.56.82.07.49.76 5.61.89 6.74.01.14-.2.2-.34.18-1-.07-1.58-1.42-1.78-2.26l-1.1-.41c.2.76.75 2.87.92 3.52m-12.3 14.5c.05.2-.08.36-.22.44-.28.14-1.09.2-1.4.1 0 0-.41.73-1.01.73-.6 0-1.01-.73-1.01-.73-.31.1-1.12.04-1.4-.1-.15-.07-.28-.24-.22-.44.17-.65.72-2.77.9-3.51l-1.1.41c-.19.84-.78 2.18-1.77 2.26-.14.01-.35-.05-.34-.18.13-1.13.82-6.25.88-6.74.07-.48.22-.71.56-.82.33-.11.58-.03.94.29.28.25 1.27 1.17 1.27 1.17s.11-.84.14-1.11h-.26c-.14 0-.26-.12-.26-.26l.12-1.02c0-.1.06-.2.15-.24 0 0 .43-.21.79-.34.36-.14.61-.14.61-.14.29.01.51.09.69.23.21.16.34.4.37.68l.23 2.19 1.27-1.17c.36-.32.6-.4.94-.29.34.11.5.34.56.82.07.49.76 5.61.89 6.74.01.14-.2.2-.34.18-1-.07-1.59-1.42-1.78-2.26l-1.1-.41c.19.75.73 2.86.9 3.52m12.3 0c.06.2-.08.36-.22.44-.28.14-1.09.2-1.4.1 0 0-.41.73-1.01.73-.6 0-1.01-.73-1.01-.73-.31.1-1.12.04-1.4-.1-.15-.07-.28-.24-.22-.44.17-.65.71-2.77.9-3.51l-1.1.41c-.19.84-.78 2.18-1.78 2.26-.14.01-.35-.05-.34-.18.13-1.13.82-6.25.88-6.74.07-.48.22-.71.56-.82.33-.11.58-.03.94.29.28.25 1.27 1.17 1.27 1.17s.11-.84.14-1.11h-.26c-.14 0-.26-.12-.26-.26l.12-1.02c0-.1.06-.2.15-.24 0 0 .43-.21.79-.34.36-.14.61-.14.61-.14.29.01.51.09.69.23.21.16.34.4.37.68l.23 2.19s.99-.92 1.27-1.17c.36-.32.6-.4.93-.29.34.11.5.34.56.82.07.49.76 5.61.89 6.74.01.14-.2.2-.34.18-1-.07-1.58-1.42-1.78-2.26l-1.1-.41c.2.75.75 2.86.92 3.52m-51.41 29.52c.06.2-.08.36-.22.44-.28.14-1.09.2-1.4.1 0 0-.41.73-1.01.73-.6 0-1.01-.73-1.01-.73-.31.1-1.12.04-1.4-.1-.15-.07-.28-.24-.22-.44.17-.65.72-2.77.9-3.51l-1.1.41c-.19.84-.78 2.18-1.77 2.26-.14.01-.35-.05-.34-.18.13-1.13.82-6.25.88-6.74.07-.49.22-.71.56-.82.33-.11.58-.03.94.29l1.27 1.17s.11-.84.14-1.11h-.26c-.14 0-.26-.12-.26-.26l.12-1.02c0-.1.06-.2.15-.24 0 0 .43-.2.79-.34.36-.14.61-.14.61-.14.29.01.51.09.69.23.21.16.34.4.37.68l.23 2.19 1.27-1.17c.36-.32.6-.4.93-.29.34.11.5.34.56.82.07.49.76 5.61.89 6.74.01.14-.2.2-.34.18-1-.07-1.59-1.42-1.78-2.26l-1.1-.41c.19.76.73 2.87.91 3.52m12.29 0c.06.2-.07.36-.22.44-.28.14-1.09.2-1.4.1 0 0-.41.73-1.01.73-.6 0-1.01-.73-1.01-.73-.31.1-1.12.04-1.4-.1-.15-.07-.28-.24-.22-.44.17-.65.72-2.77.9-3.51l-1.1.41c-.19.84-.78 2.18-1.77 2.26-.14.01-.35-.05-.34-.18.13-1.13.82-6.25.89-6.74.07-.49.22-.71.56-.82.33-.11.58-.03.93.29l1.27 1.17s.11-.84.14-1.11h-.26c-.14 0-.26-.12-.26-.26l.12-1.02c0-.1.06-.2.15-.24 0 0 .43-.2.79-.34.36-.14.61-.14.61-.14.29.01.51.09.69.23.21.16.34.4.37.68l.23 2.19 1.27-1.17c.36-.32.6-.4.94-.29.34.11.5.34.56.82.07.49.76 5.61.89 6.74.01.14-.2.2-.34.18-1-.07-1.59-1.42-1.78-2.26l-1.1-.41c.19.76.73 2.87.9 3.52m-12.29 14.5c.06.2-.08.36-.22.44-.28.14-1.09.2-1.4.1 0 0-.41.73-1.01.73-.6 0-1.01-.73-1.01-.73-.31.1-1.12.04-1.4-.1-.15-.07-.28-.24-.22-.44.17-.65.72-2.77.9-3.51l-1.1.41c-.19.84-.78 2.18-1.77 2.26-.14.01-.35-.05-.34-.18.13-1.13.82-6.25.88-6.74.07-.49.22-.71.56-.82.33-.11.58-.03.94.29l1.27 1.17s.11-.84.14-1.11h-.26c-.14 0-.26-.12-.26-.26l.12-1.02c0-.1.06-.2.15-.24 0 0 .43-.21.79-.34.36-.14.61-.14.61-.14.29.01.51.09.69.23.21.16.34.4.37.68l.23 2.19 1.27-1.17c.36-.32.6-.4.93-.29.34.11.5.34.56.82.07.49.76 5.6.89 6.74.01.14-.2.2-.34.18-1-.07-1.59-1.42-1.78-2.26l-1.1-.41c.19.75.73 2.86.91 3.52m12.29 0c.06.2-.07.36-.22.44-.28.14-1.09.2-1.4.1 0 0-.41.73-1.01.73-.6 0-1.01-.73-1.01-.73-.31.1-1.12.04-1.4-.1-.15-.07-.28-.24-.22-.44.17-.65.72-2.77.9-3.51l-1.1.41c-.19.84-.78 2.18-1.77 2.26-.14.01-.35-.05-.34-.18.13-1.13.82-6.25.89-6.74.07-.49.22-.71.56-.82.33-.11.58-.03.93.29l1.27 1.17s.11-.84.14-1.11h-.26c-.14 0-.26-.12-.26-.26l.12-1.02c0-.1.06-.2.15-.24 0 0 .43-.21.79-.34.36-.14.61-.14.61-.14.29.01.51.09.69.23.21.16.34.4.37.68l.23 2.19 1.27-1.17c.36-.32.6-.4.94-.29.34.11.5.34.56.82.07.49.76 5.6.89 6.74.01.14-.2.2-.34.18-1-.07-1.59-1.42-1.78-2.26l-1.1-.41c.19.75.73 2.86.9 3.52m26.82-14.5c.05.2-.08.36-.22.44-.28.14-1.09.2-1.4.1 0 0-.41.73-1.01.73-.6 0-1.01-.73-1.01-.73-.31.1-1.12.04-1.4-.1-.15-.07-.28-.24-.22-.44.17-.65.72-2.77.9-3.51l-1.1.41c-.19.84-.78 2.18-1.77 2.26-.14.01-.35-.05-.34-.18.13-1.13.82-6.25.88-6.74.07-.49.22-.71.56-.82.33-.11.58-.03.94.29.28.25 1.27 1.17 1.27 1.17s.11-.84.14-1.11h-.26c-.14 0-.26-.12-.26-.26l.12-1.02c0-.1.06-.2.15-.24 0 0 .43-.2.79-.34.36-.14.61-.14.61-.14.29.01.51.09.69.23.21.16.34.4.37.68l.23 2.19 1.27-1.17c.36-.32.6-.4.94-.29.34.11.5.34.56.82.07.49.76 5.61.89 6.74.01.14-.2.2-.34.18-1-.07-1.59-1.42-1.78-2.26l-1.1-.41c.19.76.73 2.87.9 3.52m12.3 0c.06.2-.08.36-.22.44-.28.14-1.09.2-1.4.1 0 0-.41.73-1.01.73-.6 0-1.01-.73-1.01-.73-.31.1-1.12.04-1.4-.1-.15-.07-.28-.24-.22-.44.17-.65.71-2.77.9-3.51l-1.1.41c-.19.84-.78 2.18-1.78 2.26-.14.01-.35-.05-.34-.18.13-1.13.82-6.25.88-6.74.07-.49.22-.71.56-.82.33-.11.58-.03.94.29.28.25 1.27 1.17 1.27 1.17s.11-.84.14-1.11h-.26c-.14 0-.26-.12-.26-.26l.12-1.02c0-.1.06-.2.15-.24 0 0 .43-.2.79-.34.36-.14.61-.14.61-.14.29.01.51.09.69.23.21.16.34.4.37.68l.23 2.19s.99-.92 1.27-1.17c.36-.32.6-.4.93-.29.34.11.5.34.56.82.07.49.76 5.61.89 6.74.01.14-.2.2-.34.18-1-.07-1.58-1.42-1.78-2.26l-1.1-.41c.2.76.75 2.87.92 3.52m-12.3 14.5c.05.2-.08.36-.22.44-.28.14-1.09.2-1.4.1 0 0-.41.73-1.01.73-.6 0-1.01-.73-1.01-.73-.31.1-1.12.04-1.4-.1-.15-.07-.28-.24-.22-.44.17-.65.72-2.77.9-3.51l-1.1.41c-.19.84-.78 2.18-1.77 2.26-.14.01-.35-.05-.34-.18.13-1.13.82-6.25.88-6.74.07-.49.22-.71.56-.82.33-.11.58-.03.94.29.28.25 1.27 1.17 1.27 1.17s.11-.84.14-1.11h-.26c-.14 0-.26-.12-.26-.26l.12-1.02c0-.1.06-.2.15-.24 0 0 .43-.21.79-.34.36-.14.61-.14.61-.14.29.01.51.09.69.23.21.16.34.4.37.68l.23 2.19 1.27-1.17c.36-.32.6-.4.94-.29.34.11.5.34.56.82.07.49.76 5.6.89 6.74.01.14-.2.2-.34.18-1-.07-1.59-1.42-1.78-2.26l-1.1-.41c.19.75.73 2.86.9 3.52m12.3 0c.06.2-.08.36-.22.44-.28.14-1.09.2-1.4.1 0 0-.41.73-1.01.73-.6 0-1.01-.73-1.01-.73-.31.1-1.12.04-1.4-.1-.15-.07-.28-.24-.22-.44.17-.65.71-2.77.9-3.51l-1.1.41c-.19.84-.78 2.18-1.78 2.26-.14.01-.35-.05-.34-.18.13-1.13.82-6.25.88-6.74.07-.49.22-.71.56-.82.33-.11.58-.03.94.29.28.25 1.27 1.17 1.27 1.17s.11-.84.14-1.11h-.26c-.14 0-.26-.12-.26-.26l.12-1.02c0-.1.06-.2.15-.24 0 0 .43-.21.79-.34.36-.14.61-.14.61-.14.29.01.51.09.69.23.21.16.34.4.37.68l.23 2.19s.99-.92 1.27-1.17c.36-.32.6-.4.93-.29.34.11.5.34.56.82.07.49.76 5.6.89 6.74.01.14-.2.2-.34.18-1-.07-1.58-1.42-1.78-2.26l-1.1-.41c.2.75.75 2.86.92 3.52m-28.34-51.23c.53 0 .99-.28 1.25-.69.21.11.44.17.69.17.77 0 1.4-.59 1.48-1.34.8-.02 1.46-.68 1.46-1.49 0-.37-.14-.71-.36-.97-.36-.43-1.66-2-1.68-2.02v-.84c0-.4-.32-.72-.72-.72h-.74c-.08-.08-.67-.67-.68-.67a.95.95 0 0 0-.7-.29c-.27 0-.52.1-.7.29 0 .01-.59.59-.67.67h-.74c-.4 0-.72.33-.72.72v.84c-.02.02-1.32 1.59-1.68 2.02-.23.26-.36.6-.36.97 0 .81.65 1.47 1.46 1.49.08.75.71 1.34 1.48 1.34.25 0 .48-.06.69-.17.26.41.72.69 1.24.69m0 22.01c.53 0 .99-.28 1.25-.69.21.11.44.17.69.17.77 0 1.4-.59 1.48-1.34.8-.02 1.46-.68 1.46-1.49 0-.37-.14-.71-.36-.97-.36-.43-1.66-2-1.68-2.02v-.84c0-.4-.32-.72-.72-.72h-.74l-.68-.68a.95.95 0 0 0-.7-.29c-.27 0-.52.1-.7.29 0 .01-.59.6-.67.68h-.74c-.4 0-.72.33-.72.72V62c-.02.03-1.32 1.59-1.68 2.02-.23.26-.36.6-.36.97 0 .81.65 1.47 1.46 1.49.08.75.71 1.34 1.48 1.34.25 0 .48-.06.69-.17.26.41.72.69 1.24.69m-19.56 0c.53 0 .99-.28 1.25-.69.21.11.44.17.69.17.77 0 1.4-.59 1.48-1.34.8-.02 1.46-.68 1.46-1.49 0-.37-.14-.71-.36-.97-.36-.43-1.66-2-1.68-2.02v-.84c0-.4-.32-.72-.72-.72h-.74c-.08-.08-.67-.67-.67-.68a.967.967 0 0 0-.7-.29c-.27 0-.52.1-.7.29 0 .01-.59.6-.68.68h-.74c-.4 0-.72.33-.72.72V62c-.02.03-1.32 1.59-1.68 2.02-.22.26-.36.6-.36.97 0 .81.65 1.47 1.46 1.49.08.75.71 1.34 1.48 1.34.25 0 .48-.06.69-.17.26.41.72.69 1.24.69m39.12 0c.53 0 .99-.28 1.25-.69.21.11.44.17.69.17.77 0 1.4-.59 1.48-1.34.81-.02 1.46-.68 1.46-1.49 0-.37-.14-.71-.36-.97-.36-.43-1.66-2-1.68-2.02v-.84c0-.4-.32-.72-.72-.72h-.74l-.68-.68a.967.967 0 0 0-.7-.29c-.27 0-.52.1-.7.29 0 .01-.59.6-.67.68h-.74c-.4 0-.72.33-.72.72V62c-.02.03-1.32 1.59-1.68 2.02-.22.26-.36.6-.36.97 0 .81.65 1.47 1.46 1.49.08.75.71 1.34 1.48 1.34.25 0 .48-.06.69-.17.25.41.71.69 1.24.69m-19.56 22.01c.53 0 .99-.28 1.25-.69.21.11.44.17.69.17.77 0 1.4-.59 1.48-1.34.8-.02 1.46-.68 1.46-1.49 0-.37-.14-.71-.36-.97-.36-.43-1.66-2-1.68-2.02v-.84c0-.4-.32-.73-.72-.73h-.74c-.08-.08-.67-.67-.68-.67a.95.95 0 0 0-.7-.29c-.27 0-.52.1-.7.29 0 .01-.59.59-.67.67h-.74c-.4 0-.72.33-.72.73v.84c-.02.03-1.32 1.59-1.68 2.02-.23.26-.36.6-.36.97 0 .81.65 1.47 1.46 1.49.08.75.71 1.34 1.48 1.34.25 0 .48-.06.69-.17.26.41.72.69 1.24.69"/><path fill="#09f" d="M220.23 45.84c.35-.02.65-.21.81-.5l-.29-2.7c-.01-.1.07-.2.17-.21.11-.01.21.06.22.16l.48 2.6a1.01 1.01 0 0 0 1.5-.79l-1.11-2.57c-.04-.1 0-.22.1-.26.1-.04.21 0 .26.09l1.19 2.32c.01 0 0 0 0 0 .56 0 1.01-.45 1.01-1 0-.21-.02-.39-.12-.54l-1.9-2.27v-1.03c0-.11-.08-.21-.2-.21h-.95l-.83-.83a.476.476 0 0 0-.34-.14c-.13 0-.25.05-.34.14l-.83.83h-.95c-.12 0-.2.1-.2.21v1.03l-1.9 2.27c-.11.15-.13.33-.13.54 0 .55.45 1 1.01 1l1.19-2.32c.05-.09.16-.14.26-.09.1.05.15.16.1.26l-1.11 2.57c.04.52.47.92 1 .92.18 0 .35-.05.5-.13l.48-2.6c.02-.11.12-.18.23-.16.1.02.18.11.17.21l-.29 2.7c.17.29.47.48.81.5m0 22.01c.35-.02.65-.21.81-.5l-.29-2.7c-.01-.1.07-.2.17-.21.11-.01.21.06.22.16l.48 2.6a1.01 1.01 0 0 0 1.5-.79l-1.11-2.57c-.04-.1 0-.22.1-.26.1-.04.21 0 .26.09l1.19 2.32c.01 0 0 0 0 0 .56 0 1.01-.45 1.01-1 0-.21-.02-.39-.12-.54l-1.9-2.27v-1.03c0-.11-.08-.21-.2-.21h-.95l-.83-.83a.476.476 0 0 0-.34-.14c-.13 0-.25.05-.34.14l-.83.83h-.95c-.12 0-.2.1-.2.21v1.03l-1.9 2.27c-.11.15-.13.33-.13.54 0 .55.45 1 1.01 1l1.19-2.32c.05-.09.16-.13.26-.09.1.04.15.16.1.26l-1.11 2.57c.04.52.47.92 1 .92.18 0 .35-.05.5-.13l.48-2.6c.02-.1.12-.18.23-.16.1.02.18.11.17.21l-.29 2.7c.17.29.47.48.81.5m-19.56 0c.35-.02.65-.21.81-.5l-.29-2.7c-.01-.1.07-.2.17-.21.11-.01.21.06.22.16l.48 2.6a1.01 1.01 0 0 0 1.5-.79l-1.11-2.57c-.04-.1 0-.22.1-.26.1-.04.21 0 .26.09l1.19 2.32c.56 0 1.01-.45 1.01-1 0-.21-.02-.39-.13-.54l-1.9-2.27v-1.03c0-.11-.08-.21-.2-.21h-.95l-.83-.83a.476.476 0 0 0-.34-.14c-.13 0-.25.05-.34.14l-.83.83h-.95c-.12 0-.2.1-.2.21v1.03l-1.9 2.27c-.11.15-.13.33-.13.54 0 .55.45 1 1.01 1l1.19-2.32c.05-.09.16-.13.26-.09.1.04.15.16.1.26l-1.11 2.57c.04.52.47.92 1 .92.18 0 .35-.05.5-.13l.48-2.6c.02-.1.12-.18.23-.16.1.02.18.11.17.21l-.29 2.7c.18.29.48.48.82.5m39.12 0c.35-.02.65-.21.81-.5l-.29-2.7c-.01-.1.07-.2.17-.21.11-.01.21.06.22.16l.48 2.6a1.01 1.01 0 0 0 1.5-.79l-1.11-2.57c-.04-.1 0-.22.1-.26.1-.04.21 0 .26.09l1.19 2.32c.01 0 0 0 0 0 .56 0 1.01-.45 1.01-1 0-.21-.02-.39-.12-.54l-1.9-2.27v-1.03c0-.11-.08-.21-.2-.21h-.95l-.83-.83a.476.476 0 0 0-.34-.14c-.13 0-.25.05-.34.14l-.83.83h-.95c-.12 0-.2.1-.2.21v1.03l-1.9 2.27c-.11.15-.13.33-.13.54 0 .55.45 1 1.01 1l1.19-2.32c.05-.09.16-.13.26-.09.1.04.15.16.1.26l-1.11 2.57c.04.52.47.92 1 .92.18 0 .35-.05.5-.13l.48-2.6c.02-.1.12-.18.22-.16.1.02.18.11.17.21l-.29 2.7c.17.29.47.48.82.5m-19.56 22.01c.35-.02.65-.21.81-.5l-.29-2.7c-.01-.1.07-.2.17-.21.11-.02.21.06.22.16l.48 2.6a1.01 1.01 0 0 0 1.5-.79l-1.11-2.57c-.04-.1 0-.22.1-.26.1-.04.21 0 .26.09l1.19 2.32c.01 0 0 0 0 0 .56 0 1.01-.45 1.01-1 0-.21-.02-.39-.12-.54l-1.9-2.27v-1.03c0-.11-.08-.21-.2-.21h-.95l-.83-.83a.476.476 0 0 0-.34-.14c-.13 0-.25.05-.34.14l-.83.83h-.95c-.12 0-.2.1-.2.21v1.03l-1.9 2.27c-.11.15-.13.33-.13.54 0 .55.45 1 1.01 1l1.19-2.32c.05-.09.16-.14.26-.09.1.04.15.16.1.26l-1.11 2.57c.04.52.47.92 1 .92.18 0 .35-.05.5-.13l.48-2.6c.02-.11.12-.18.23-.16.1.01.18.11.17.21l-.29 2.7c.17.29.47.48.81.5"/><path fill="#d9d9d9" d="M196.63 39.04c-.18.07-.58.1-.77.08a.32.32 0 0 1-.14-.03l-.03-.02-.4-1.94c-.07-.35-.37-.33-.33.07l.2 1.99c-.05.1-.35.59-.63.59s-.58-.49-.63-.59l.2-1.99c.04-.39-.26-.42-.33-.07l-.4 1.94-.03.02c-.04.01-.09.02-.14.03-.2.02-.59-.02-.77-.08.25-1 .83-3.18.99-3.88.03-.11-.04-.29-.25-.3-.02 0-.06 0-.12.03-.25.09-.96.36-1.19.45l.15-1.59c.03-.4-.28-.42-.35-.07-.31 1.41-.49 3.32-1.51 3.94.08-.67.74-5.67.84-6.34.03-.16.03-.27.21-.33.13-.04.24.01.36.12.01 0 1.67 1.53 1.67 1.53.06.08.17.12.27.09s.17-.12.19-.22l.23-1.89a.22.22 0 0 0-.07-.2.246.246 0 0 0-.19-.09h-.26l.07-.59c.19-.09.7-.32.94-.36h.02l.1-.01c.14 0 .28.04.38.12.1.08.16.19.18.34l.29 2.69c.01.1.08.19.18.22.1.03.21-.01.27-.09 0 0 1.67-1.53 1.68-1.53.12-.12.23-.17.36-.12.18.06.18.18.21.33.09.67.76 5.66.84 6.34-1.02-.62-1.19-2.53-1.51-3.94-.07-.36-.39-.33-.35.07l.15 1.59c-.23-.08-.94-.35-1.19-.45a.405.405 0 0 0-.12-.03c-.21.01-.28.19-.25.3.15.69.72 2.87.98 3.87m12.29 0c-.18.07-.58.1-.77.08a.32.32 0 0 1-.14-.03l-.03-.02-.4-1.94c-.07-.35-.37-.33-.33.07l.2 1.99c-.05.1-.35.59-.63.59s-.58-.49-.63-.59l.2-1.99c.04-.39-.26-.42-.33-.07l-.4 1.94-.03.02c-.04.01-.09.02-.14.03-.2.02-.59-.02-.77-.08.25-1 .83-3.18.99-3.88.03-.11-.04-.29-.25-.3-.02 0-.06 0-.12.03-.25.09-.96.36-1.19.45l.15-1.59c.03-.4-.28-.42-.35-.07-.31 1.41-.49 3.32-1.51 3.94.08-.67.74-5.67.84-6.34.03-.16.03-.27.21-.33.13-.04.24.01.36.12.01 0 1.67 1.53 1.67 1.53.06.08.17.12.27.09s.17-.12.19-.22l.23-1.89a.242.242 0 0 0-.06-.2.246.246 0 0 0-.19-.09h-.26l.07-.59c.19-.09.7-.32.94-.36h.02l.1-.01c.15 0 .28.04.38.12.1.08.16.19.18.34l.29 2.69c.01.1.09.19.18.22.1.03.21-.01.27-.09l1.67-1.53c.12-.12.23-.17.36-.12.18.06.18.18.21.33.09.67.76 5.66.84 6.34-1.02-.62-1.19-2.53-1.51-3.94-.07-.36-.39-.33-.35.07l.15 1.59c-.23-.08-.94-.35-1.19-.45a.405.405 0 0 0-.12-.03c-.21.01-.28.19-.25.3.15.69.73 2.87.98 3.87m-12.29 14.5c-.18.07-.58.1-.77.08-.05-.01-.1-.01-.14-.03l-.03-.02-.4-1.93c-.07-.36-.37-.33-.33.07l.2 1.99c-.05.1-.35.59-.63.59s-.58-.49-.63-.59l.2-1.99c.04-.39-.26-.42-.33-.07l-.4 1.93-.03.02c-.04.01-.09.02-.14.03-.2.02-.59-.02-.77-.08.25-1 .83-3.18.99-3.88.03-.11-.04-.29-.25-.3-.02 0-.06 0-.12.03-.25.09-.96.36-1.19.45l.15-1.59c.03-.39-.28-.42-.35-.07-.31 1.41-.49 3.31-1.51 3.94.08-.67.74-5.67.84-6.34.03-.16.03-.27.21-.33.13-.04.24.01.36.12.01 0 1.67 1.53 1.67 1.53.06.08.17.12.27.09s.17-.12.19-.22l.23-1.9a.22.22 0 0 0-.07-.2.246.246 0 0 0-.19-.09h-.26l.07-.59c.19-.09.7-.32.94-.36h.02l.1-.01c.14 0 .28.04.38.12.1.08.16.19.18.33l.29 2.69c.01.1.08.19.18.22.1.03.21-.01.27-.09 0 0 1.67-1.53 1.68-1.53.12-.12.23-.17.36-.12.18.06.18.18.21.33.09.67.76 5.67.84 6.34-1.02-.62-1.19-2.53-1.51-3.94-.07-.36-.39-.33-.35.07l.15 1.59c-.23-.08-.94-.35-1.19-.45a.405.405 0 0 0-.12-.03c-.21.01-.28.19-.25.3.15.71.72 2.89.98 3.89m12.29 0c-.18.07-.58.1-.77.08-.05-.01-.1-.01-.14-.03l-.03-.02-.4-1.93c-.07-.36-.37-.33-.33.07l.2 1.99c-.05.1-.35.59-.63.59s-.58-.49-.63-.59l.2-1.99c.04-.39-.26-.42-.33-.07l-.4 1.93-.03.02c-.04.01-.09.02-.14.03-.2.02-.59-.02-.77-.08.25-1 .83-3.18.99-3.88.03-.11-.04-.29-.25-.3-.02 0-.06 0-.12.03-.25.09-.96.36-1.19.45l.15-1.59c.03-.39-.28-.42-.35-.07-.31 1.41-.49 3.31-1.51 3.94.08-.67.74-5.67.84-6.34.03-.16.03-.27.21-.33.13-.04.24.01.36.12.01 0 1.67 1.53 1.67 1.53.06.08.17.12.27.09s.17-.12.19-.22l.23-1.9a.242.242 0 0 0-.06-.2.246.246 0 0 0-.19-.09h-.26l.07-.59c.19-.09.7-.32.94-.36h.02l.1-.01c.15 0 .28.04.38.12.1.08.16.19.18.33l.29 2.69c.01.1.09.19.18.22.1.03.21-.01.27-.09l1.67-1.53c.12-.12.23-.17.36-.12.18.06.18.18.21.33.09.67.76 5.67.84 6.34-1.02-.62-1.19-2.53-1.51-3.94-.07-.36-.39-.33-.35.07l.15 1.59c-.23-.08-.94-.35-1.19-.45a.405.405 0 0 0-.12-.03c-.21.01-.28.19-.25.3.15.71.73 2.89.98 3.89m26.82-14.5c-.18.07-.58.1-.77.08a.32.32 0 0 1-.14-.03l-.03-.02-.4-1.94c-.07-.35-.37-.33-.33.07l.21 1.99c-.05.1-.35.59-.63.59s-.58-.49-.63-.59l.2-1.99c.03-.39-.26-.42-.33-.07l-.4 1.94-.03.02c-.04.01-.08.02-.14.03-.2.02-.59-.02-.77-.08.25-1 .83-3.18.99-3.88.03-.11-.04-.29-.25-.3-.02 0-.07 0-.12.03-.25.09-.96.36-1.19.45l.15-1.59c.03-.4-.28-.42-.35-.07-.31 1.41-.49 3.32-1.51 3.94.08-.67.74-5.67.84-6.34.03-.16.03-.27.21-.33.13-.04.24.01.36.12.01 0 1.67 1.53 1.67 1.53.06.08.17.12.27.09s.17-.12.19-.22l.23-1.89a.242.242 0 0 0-.06-.2.246.246 0 0 0-.19-.09h-.26l.07-.59c.19-.09.7-.32.94-.36h.02l.1-.01c.15 0 .28.04.38.12.1.08.16.19.18.34l.29 2.69c.01.1.09.19.18.22.1.03.21-.01.27-.09l1.67-1.53c.12-.12.23-.17.36-.12.18.06.18.18.21.33.09.67.76 5.66.84 6.34-1.02-.62-1.19-2.53-1.51-3.94-.07-.36-.38-.33-.35.07l.15 1.59c-.22-.08-.94-.35-1.19-.45a.405.405 0 0 0-.12-.03c-.21.01-.28.19-.25.3.14.69.72 2.87.97 3.87m12.3 0c-.18.07-.58.1-.78.08a.32.32 0 0 1-.14-.03l-.03-.02-.4-1.94c-.07-.35-.37-.33-.33.07l.2 1.99c-.05.1-.35.59-.63.59s-.58-.49-.63-.59l.2-1.99c.04-.39-.26-.42-.33-.07l-.4 1.94-.03.02c-.04.01-.09.02-.14.03-.2.02-.59-.02-.77-.08.25-1 .83-3.18.99-3.88.03-.11-.04-.29-.25-.3-.02 0-.06 0-.12.03-.25.09-.96.36-1.19.45l.15-1.59c.03-.4-.28-.42-.35-.07-.31 1.41-.49 3.32-1.51 3.94.08-.67.74-5.67.84-6.34.03-.16.03-.27.21-.33.13-.04.24.01.36.12.01 0 1.68 1.53 1.68 1.53.06.08.17.12.27.09s.17-.12.19-.22l.23-1.89a.242.242 0 0 0-.06-.2.246.246 0 0 0-.19-.09h-.26l.07-.59c.19-.09.7-.32.94-.36h.02l.1-.01c.14 0 .28.04.38.12.1.08.16.19.18.34l.29 2.69c.01.1.08.19.18.22.1.03.21-.01.27-.09 0 0 1.67-1.53 1.68-1.53.12-.12.23-.17.36-.12.18.06.18.18.21.33.09.67.76 5.66.84 6.34-1.02-.62-1.19-2.53-1.51-3.94-.07-.36-.39-.33-.35.07l.15 1.59c-.23-.08-.94-.35-1.19-.45a.405.405 0 0 0-.12-.03c-.21.01-.28.19-.25.3.14.69.72 2.87.97 3.87m-12.3 14.5c-.18.07-.58.1-.77.08-.05-.01-.1-.01-.14-.03l-.03-.02-.4-1.93c-.07-.36-.37-.33-.33.07l.21 1.99c-.05.1-.35.59-.63.59s-.58-.49-.63-.59l.2-1.99c.03-.39-.26-.42-.33-.07l-.4 1.93-.03.02c-.04.01-.08.02-.14.03-.2.02-.59-.02-.77-.08.25-1 .83-3.18.99-3.88.03-.11-.04-.29-.25-.3-.02 0-.07 0-.12.03-.25.09-.96.36-1.19.45l.15-1.59c.03-.39-.28-.42-.35-.07-.31 1.41-.49 3.31-1.51 3.94.08-.67.74-5.67.84-6.34.03-.16.03-.27.21-.33.13-.04.24.01.36.12.01 0 1.67 1.53 1.67 1.53.06.08.17.12.27.09s.17-.12.19-.22l.23-1.9a.242.242 0 0 0-.06-.2.246.246 0 0 0-.19-.09h-.26l.07-.59c.19-.09.7-.32.94-.36h.02l.1-.01c.15 0 .28.04.38.12.1.08.16.19.18.33l.29 2.69c.01.1.09.19.18.22.1.03.21-.01.27-.09l1.67-1.53c.12-.12.23-.17.36-.12.18.06.18.18.21.33.09.67.76 5.67.84 6.34-1.02-.62-1.19-2.53-1.51-3.94-.07-.36-.38-.33-.35.07l.15 1.59c-.22-.08-.94-.35-1.19-.45a.405.405 0 0 0-.12-.03c-.21.01-.28.19-.25.3.14.71.72 2.89.97 3.89m12.3 0c-.18.07-.58.1-.78.08-.05-.01-.1-.01-.14-.03l-.03-.02-.4-1.93c-.07-.36-.37-.33-.33.07l.2 1.99c-.05.1-.35.59-.63.59s-.58-.49-.63-.59l.2-1.99c.04-.39-.26-.42-.33-.07l-.4 1.93-.03.02c-.04.01-.09.02-.14.03-.2.02-.59-.02-.77-.08.25-1 .83-3.18.99-3.88.03-.11-.04-.29-.25-.3-.02 0-.06 0-.12.03-.25.09-.96.36-1.19.45l.15-1.59c.03-.39-.28-.42-.35-.07-.31 1.41-.49 3.31-1.51 3.94.08-.67.74-5.67.84-6.34.03-.16.03-.27.21-.33.13-.04.24.01.36.12.01 0 1.68 1.53 1.68 1.53.06.08.17.12.27.09s.17-.12.19-.22l.23-1.9a.242.242 0 0 0-.06-.2.246.246 0 0 0-.19-.09h-.26l.07-.59c.19-.09.7-.32.94-.36h.02l.1-.01c.14 0 .28.04.38.12.1.08.16.19.18.33l.29 2.69c.01.1.08.19.18.22.1.03.21-.01.27-.09 0 0 1.67-1.53 1.68-1.53.12-.12.23-.17.36-.12.18.06.18.18.21.33.09.67.76 5.67.84 6.34-1.02-.62-1.19-2.53-1.51-3.94-.07-.36-.39-.33-.35.07l.15 1.59c-.23-.08-.94-.35-1.19-.45a.405.405 0 0 0-.12-.03c-.21.01-.28.19-.25.3.14.71.72 2.89.97 3.89m-51.41 29.52c-.18.07-.58.1-.77.08a.59.59 0 0 1-.14-.02l-.03-.02-.4-1.93c-.07-.36-.37-.33-.33.06l.2 2c-.05.1-.35.59-.63.59s-.58-.49-.63-.59l.2-2c.04-.39-.26-.42-.33-.06l-.4 1.93-.03.02a.59.59 0 0 1-.14.02c-.2.02-.59-.01-.77-.08.25-1 .83-3.18.99-3.88.03-.11-.04-.29-.25-.3-.02 0-.06 0-.12.03-.25.09-.96.36-1.19.45l.15-1.59c.03-.39-.28-.42-.35-.07-.31 1.41-.49 3.31-1.51 3.94.08-.67.74-5.67.84-6.34.03-.16.03-.27.21-.33.13-.04.24.01.36.12.01 0 1.67 1.53 1.67 1.53.06.08.17.12.27.09s.17-.12.19-.22l.23-1.9a.22.22 0 0 0-.07-.2.246.246 0 0 0-.19-.09h-.26l.07-.59c.19-.09.7-.32.94-.36l.02-.01.1-.01c.14 0 .28.04.38.12.1.08.16.19.18.33l.29 2.69c.01.1.08.19.18.22.1.03.21-.01.27-.09 0 0 1.67-1.53 1.68-1.53.12-.12.23-.17.36-.12.18.06.18.18.21.33.09.67.76 5.67.84 6.34-1.02-.62-1.19-2.53-1.51-3.94-.07-.36-.39-.33-.35.07l.15 1.59c-.23-.08-.94-.35-1.19-.45a.405.405 0 0 0-.12-.03c-.21.01-.28.19-.25.3.15.72.72 2.9.98 3.9m12.29 0c-.18.07-.58.1-.77.08a.59.59 0 0 1-.14-.02l-.03-.02-.4-1.93c-.07-.36-.37-.33-.33.06l.2 2c-.05.1-.35.59-.63.59s-.58-.49-.63-.59l.2-2c.04-.39-.26-.42-.33-.06l-.4 1.93-.03.02a.59.59 0 0 1-.14.02c-.2.02-.59-.01-.77-.08.25-1 .83-3.18.99-3.88.03-.11-.04-.29-.25-.3-.02 0-.06 0-.12.03-.25.09-.96.36-1.19.45l.15-1.59c.03-.39-.28-.42-.35-.07-.31 1.41-.49 3.31-1.51 3.94.08-.67.74-5.67.84-6.34.03-.16.03-.27.21-.33.13-.04.24.01.36.12.01 0 1.67 1.53 1.67 1.53.06.08.17.12.27.09s.17-.12.19-.22l.23-1.9a.242.242 0 0 0-.06-.2.246.246 0 0 0-.19-.09h-.26l.07-.59c.19-.09.7-.32.94-.36l.02-.01.1-.01c.15 0 .28.04.38.12.1.08.16.19.18.33l.29 2.69c.01.1.09.19.18.22.1.03.21-.01.27-.09l1.67-1.53c.12-.12.23-.17.36-.12.18.06.18.18.21.33.09.67.76 5.67.84 6.34-1.02-.62-1.19-2.53-1.51-3.94-.07-.36-.39-.33-.35.07l.15 1.59c-.23-.08-.94-.35-1.19-.45a.405.405 0 0 0-.12-.03c-.21.01-.28.19-.25.3.15.72.73 2.9.98 3.9m-12.29 14.5c-.18.07-.58.1-.77.08a.32.32 0 0 1-.14-.03l-.03-.02-.4-1.93c-.07-.36-.37-.33-.33.06l.2 2c-.05.1-.35.59-.63.59s-.58-.49-.63-.59l.2-2c.04-.39-.26-.42-.33-.06l-.4 1.93-.03.02c-.04.01-.09.02-.14.03-.2.02-.59-.01-.77-.08.25-1 .83-3.18.99-3.88.03-.11-.04-.29-.25-.3-.02 0-.06 0-.12.03-.25.09-.96.36-1.19.45l.15-1.59c.03-.4-.28-.42-.35-.07-.31 1.41-.49 3.32-1.51 3.94.08-.67.74-5.67.84-6.34.03-.16.03-.27.21-.33.13-.04.24.01.36.12.01 0 1.67 1.53 1.67 1.53.06.08.17.12.27.09s.17-.12.19-.22l.23-1.89a.22.22 0 0 0-.07-.2.246.246 0 0 0-.19-.09h-.26l.07-.59c.19-.09.7-.32.94-.36h.02l.1-.01c.14 0 .28.04.38.12.1.08.16.19.18.33l.29 2.69c.01.1.08.19.18.22.1.03.21-.01.27-.09 0 0 1.67-1.53 1.68-1.53.12-.12.23-.17.36-.12.18.06.18.18.21.33.09.67.76 5.67.84 6.34-1.02-.62-1.19-2.53-1.51-3.94-.07-.35-.39-.33-.35.07l.15 1.59c-.23-.08-.94-.35-1.19-.45a.405.405 0 0 0-.12-.03c-.21.01-.28.19-.25.3.15.7.72 2.88.98 3.88m12.29 0c-.18.07-.58.1-.77.08a.32.32 0 0 1-.14-.03l-.03-.02-.4-1.93c-.07-.36-.37-.33-.33.06l.2 2c-.05.1-.35.59-.63.59s-.58-.49-.63-.59l.2-2c.04-.39-.26-.42-.33-.06l-.4 1.93-.03.02c-.04.01-.09.02-.14.03-.2.02-.59-.01-.77-.08.25-1 .83-3.18.99-3.88.03-.11-.04-.29-.25-.3-.02 0-.06 0-.12.03-.25.09-.96.36-1.19.45l.15-1.59c.03-.4-.28-.42-.35-.07-.31 1.41-.49 3.32-1.51 3.94.08-.67.74-5.67.84-6.34.03-.16.03-.27.21-.33.13-.04.24.01.36.12.01 0 1.67 1.53 1.67 1.53.06.08.17.12.27.09s.17-.12.19-.22l.23-1.89a.242.242 0 0 0-.06-.2.246.246 0 0 0-.19-.09h-.26l.07-.59c.19-.09.7-.32.94-.36h.02l.1-.01c.15 0 .28.04.38.12.1.08.16.19.18.33l.29 2.69c.01.1.09.19.18.22.1.03.21-.01.27-.09l1.67-1.53c.12-.12.23-.17.36-.12.18.06.18.18.21.33.09.67.76 5.67.84 6.34-1.02-.62-1.19-2.53-1.51-3.94-.07-.35-.39-.33-.35.07l.15 1.59c-.23-.08-.94-.35-1.19-.45a.405.405 0 0 0-.12-.03c-.21.01-.28.19-.25.3.15.7.73 2.88.98 3.88m26.82-14.5c-.18.07-.58.1-.77.08a.59.59 0 0 1-.14-.02l-.03-.02-.4-1.93c-.07-.36-.37-.33-.33.06l.21 2c-.05.1-.35.59-.63.59s-.58-.49-.63-.59l.2-2c.03-.39-.26-.42-.33-.06l-.4 1.93-.03.02c-.04.01-.08.02-.14.02-.2.02-.59-.01-.77-.08.25-1 .83-3.18.99-3.88.03-.11-.04-.29-.25-.3-.02 0-.07 0-.12.03-.25.09-.96.36-1.19.45l.15-1.59c.03-.39-.28-.42-.35-.07-.31 1.41-.49 3.31-1.51 3.94.08-.67.74-5.67.84-6.34.03-.16.03-.27.21-.33.13-.04.24.01.36.12.01 0 1.67 1.53 1.67 1.53.06.08.17.12.27.09s.17-.12.19-.22l.23-1.9a.242.242 0 0 0-.06-.2.246.246 0 0 0-.19-.09h-.26l.07-.59c.19-.09.7-.32.94-.36l.02-.01.1-.01c.15 0 .28.04.38.12.1.08.16.19.18.33l.29 2.69c.01.1.09.19.18.22.1.03.21-.01.27-.09l1.67-1.53c.12-.12.23-.17.36-.12.18.06.18.18.21.33.09.67.76 5.67.84 6.34-1.02-.62-1.19-2.53-1.51-3.94-.07-.36-.38-.33-.35.07l.15 1.59c-.22-.08-.94-.35-1.19-.45a.405.405 0 0 0-.12-.03c-.21.01-.28.19-.25.3.14.72.72 2.9.97 3.9m12.3 0c-.18.07-.58.1-.78.08a.59.59 0 0 1-.14-.02l-.03-.02-.4-1.93c-.07-.36-.37-.33-.33.06l.2 2c-.05.1-.35.59-.63.59s-.58-.49-.63-.59l.2-2c.04-.39-.26-.42-.33-.06l-.4 1.93-.03.02a.59.59 0 0 1-.14.02c-.2.02-.59-.01-.77-.08.25-1 .83-3.18.99-3.88.03-.11-.04-.29-.25-.3-.02 0-.06 0-.12.03-.25.09-.96.36-1.19.45l.15-1.59c.03-.39-.28-.42-.35-.07-.31 1.41-.49 3.31-1.51 3.94.08-.67.74-5.67.84-6.34.03-.16.03-.27.21-.33.13-.04.24.01.36.12.01 0 1.68 1.53 1.68 1.53.06.08.17.12.27.09s.17-.12.19-.22l.23-1.9a.242.242 0 0 0-.06-.2.246.246 0 0 0-.19-.09h-.26l.07-.59c.19-.09.7-.32.94-.36l.02-.01.1-.01c.14 0 .28.04.38.12.1.08.16.19.18.33l.29 2.69c.01.1.08.19.18.22.1.03.21-.01.27-.09 0 0 1.67-1.53 1.68-1.53.12-.12.23-.17.36-.12.18.06.18.18.21.33.09.67.76 5.67.84 6.34-1.02-.62-1.19-2.53-1.51-3.94-.07-.36-.39-.33-.35.07l.15 1.59c-.23-.08-.94-.35-1.19-.45a.405.405 0 0 0-.12-.03c-.21.01-.28.19-.25.3.14.72.72 2.9.97 3.9m-12.3 14.5c-.18.07-.58.1-.77.08a.32.32 0 0 1-.14-.03l-.03-.02-.4-1.93c-.07-.36-.37-.33-.33.06l.21 2c-.05.1-.35.59-.63.59s-.58-.49-.63-.59l.2-2c.03-.39-.26-.42-.33-.06l-.4 1.93-.03.02c-.04.01-.08.02-.14.03-.2.02-.59-.01-.77-.08.25-1 .83-3.18.99-3.88.03-.11-.04-.29-.25-.3-.02 0-.07 0-.12.03-.25.09-.96.36-1.19.45l.15-1.59c.03-.4-.28-.42-.35-.07-.31 1.41-.49 3.32-1.51 3.94.08-.67.74-5.67.84-6.34.03-.16.03-.27.21-.33.13-.04.24.01.36.12.01 0 1.67 1.53 1.67 1.53.06.08.17.12.27.09s.17-.12.19-.22l.23-1.89a.242.242 0 0 0-.06-.2.246.246 0 0 0-.19-.09h-.26l.07-.59c.19-.09.7-.32.94-.36h.02l.1-.01c.15 0 .28.04.38.12.1.08.16.19.18.33l.29 2.69c.01.1.09.19.18.22.1.03.21-.01.27-.09l1.67-1.53c.12-.12.23-.17.36-.12.18.06.18.18.21.33.09.67.76 5.67.84 6.34-1.02-.62-1.19-2.53-1.51-3.94-.07-.35-.38-.33-.35.07l.15 1.59c-.22-.08-.94-.35-1.19-.45a.405.405 0 0 0-.12-.03c-.21.01-.28.19-.25.3.14.7.72 2.88.97 3.88m12.3 0c-.18.07-.58.1-.78.08a.32.32 0 0 1-.14-.03l-.03-.02-.4-1.93c-.07-.36-.37-.33-.33.06l.2 2c-.05.1-.35.59-.63.59s-.58-.49-.63-.59l.2-2c.04-.39-.26-.42-.33-.06l-.4 1.93-.03.02c-.04.01-.09.02-.14.03-.2.02-.59-.01-.77-.08.25-1 .83-3.18.99-3.88.03-.11-.04-.29-.25-.3-.02 0-.06 0-.12.03-.25.09-.96.36-1.19.45l.15-1.59c.03-.4-.28-.42-.35-.07-.31 1.41-.49 3.32-1.51 3.94.08-.67.74-5.67.84-6.34.03-.16.03-.27.21-.33.13-.04.24.01.36.12.01 0 1.68 1.53 1.68 1.53.06.08.17.12.27.09s.17-.12.19-.22l.23-1.89a.242.242 0 0 0-.06-.2.246.246 0 0 0-.19-.09h-.26l.07-.59c.19-.09.7-.32.94-.36h.02l.1-.01c.14 0 .28.04.38.12.1.08.16.19.18.33l.29 2.69c.01.1.08.19.18.22.1.03.21-.01.27-.09 0 0 1.67-1.53 1.68-1.53.12-.12.23-.17.36-.12.18.06.18.18.21.33.09.67.76 5.67.84 6.34-1.02-.62-1.19-2.53-1.51-3.94-.07-.35-.39-.33-.35.07l.15 1.59c-.23-.08-.94-.35-1.19-.45a.405.405 0 0 0-.12-.03c-.21.01-.28.19-.25.3.14.7.72 2.88.97 3.88"/></svg>
