<svg class="social-twitter" aria-role="presentation" aria-hidden="true" viewBox="0 0 32 32"><path d="M26.86 10.44v.7c.05 8.71-6.97 15.82-15.69 15.87h-.24c-3.05 0-6.04-.88-8.61-2.52.45.05.9.07 1.35.06 2.53.01 4.99-.83 6.97-2.4a5.553 5.553 0 0 1-5.21-3.86c.35.07.7.11 1.05.12.49 0 .99-.06 1.46-.18a5.577 5.577 0 0 1-4.51-5.45v-.06c.78.41 1.64.65 2.52.7a5.523 5.523 0 0 1-2.52-4.63c0-.99.27-1.95.76-2.81 2.84 3.5 7.04 5.63 11.54 5.86-.1-.42-.14-.86-.12-1.29 0-3.08 2.51-5.57 5.58-5.56h.04c1.55.01 3.03.64 4.1 1.76 1.26-.24 2.47-.69 3.57-1.35-.42 1.3-1.29 2.4-2.46 3.1 1.11-.11 2.2-.41 3.22-.88-.77 1.09-1.72 2.05-2.81 2.82Z"/></svg>
