<svg class="social-instagram" aria-role="presentation" aria-hidden="true" xmlns="http://www.w3.org/2000/svg" viewBox="0 0 32 32"><path d="M16 6.97c2.94 0 3.29.01 4.45.07.7 0 1.39.14 2.05.38.48.18.91.46 1.27.82.37.35.65.79.82 1.27.24.66.37 1.35.38 2.05.05 1.16.07 1.51.07 4.45s-.01 3.29-.07 4.45c0 .7-.14 1.39-.38 2.05-.18.48-.46.91-.82 1.27-.36.37-.79.65-1.27.82-.66.24-1.35.37-2.05.38-1.16.05-1.51.07-4.45.07s-3.29-.01-4.45-.07c-.7 0-1.39-.14-2.05-.38-.48-.18-.91-.46-1.27-.82-.37-.35-.65-.79-.82-1.27a6.25 6.25 0 0 1-.38-2.05c-.05-1.16-.07-1.51-.07-4.45s.01-3.29.07-4.45c0-.7.14-1.39.38-2.05.18-.48.46-.91.82-1.27.36-.37.79-.65 1.27-.83a6.25 6.25 0 0 1 2.05-.38c1.16-.06 1.51-.07 4.45-.07m0-1.99c-2.99 0-3.37.01-4.54.07-.91.02-1.81.19-2.67.51-.74.28-1.4.71-1.95 1.27-.56.55-.99 1.22-1.27 1.95-.32.85-.49 1.76-.51 2.67-.05 1.17-.07 1.55-.07 4.54s.01 3.36.07 4.54c.02.91.19 1.82.51 2.67.28.73.71 1.4 1.27 1.95.55.56 1.22.99 1.95 1.27.85.32 1.76.5 2.67.51 1.18.05 1.55.07 4.54.07s3.36-.01 4.54-.07c.91-.02 1.82-.19 2.67-.51.73-.28 1.4-.71 1.95-1.27.56-.55.99-1.22 1.27-1.95.32-.86.49-1.76.51-2.68.05-1.18.07-1.55.07-4.54s-.01-3.36-.07-4.54c-.02-.91-.19-1.82-.51-2.67-.28-.73-.71-1.4-1.27-1.95-.55-.56-1.22-.99-1.95-1.27-.86-.32-1.76-.49-2.68-.51-1.18-.05-1.55-.06-4.54-.06"/><path d="M16 10.35c-3.12 0-5.66 2.53-5.66 5.66s2.53 5.65 5.66 5.65 5.65-2.53 5.65-5.65c0-3.12-2.53-5.66-5.65-5.66m0 9.32a3.675 3.675 0 1 1 .01-7.35c2.03 0 3.67 1.65 3.67 3.67 0 2.03-1.64 3.67-3.67 3.67Z"/><path d="M21.88 8.8c.73 0 1.32.59 1.32 1.32 0 .73-.59 1.32-1.32 1.32-.73 0-1.32-.59-1.32-1.32 0-.73.59-1.32 1.32-1.32"/></svg>
