<svg class="social-youtube" aria-role="presentation" aria-hidden="true" xmlns="http://www.w3.org/2000/svg" viewBox="0 0 32 32"><path d="M16 25.2c-.08 0-8.37 0-10.46-.56a3.334 3.334 0 0 1-2.36-2.31c-.38-2.08-.56-4.2-.55-6.32-.01-2.12.17-4.24.55-6.32a3.415 3.415 0 0 1 2.35-2.34c2.07-.54 10.38-.54 10.46-.54s8.39 0 10.46.56a3.33 3.33 0 0 1 2.36 2.32c.39 2.09.58 4.21.55 6.34.01 2.12-.17 4.23-.55 6.32a3.313 3.313 0 0 1-2.36 2.32c-2.07.54-10.37.54-10.46.54m-2.66-13.13v7.88l6.95-3.94-6.95-3.94Z"/></svg>
