<svg aria-hidden="true" aria-role="presentation" class="social-bluesky" viewBox="0 0 32 32"><path d="m7.2384 2.3483c3.5465 2.6625 7.3611 8.0608 8.7616 10.9579 1.4006-2.8969 5.215-8.2955 8.7616-10.9579 2.5589-1.9211 6.7051-3.4076 6.7051 1.3224 0 0.9446-0.5416 7.9355-0.8593 9.0704-1.1042 3.9458-5.1277 4.9522-8.7067 4.3431 6.256 1.0647 7.8475 4.5916 4.4105 8.1184-6.5275 6.6981-9.3819-1.6806-10.1136-3.8275-0.1341-0.3936-0.1968-0.5777-0.1977-0.4211-0.0009-0.1566-0.0637 0.0276-0.1977 0.4211-0.7314 2.1469-3.5858 10.5259-10.1136 3.8275-3.437-3.5268-1.8456-7.0539 4.4105-8.1184-3.5791 0.6091-7.6027-0.3094-8.7067-4.3431-0.3197-1.0641-0.8593-7.9497-0.8593-9.0704 0-4.6509 4.1433-3.1889 6.7051-1.3224z" /></svg>
