<svg class="social-vimeo" aria-role="presentation" aria-hidden="true" viewBox="0 0 32 32"> <path class="cls-1" d="m31.86,7.34c.24-1.34.23-2.72-.59-3.76-1.15-1.46-3.61-1.51-5.3-1.26-1.37.21-6,2.25-7.58,7.15,2.79-.21,4.26.2,3.99,3.28-.11,1.29-.76,2.7-1.49,4.05-.84,1.56-2.41,4.62-4.47,2.41-1.86-1.98-1.72-5.78-2.14-8.31-.24-1.42-.49-3.18-.95-4.64-.4-1.25-1.32-2.77-2.44-3.09-1.21-.35-2.7.2-3.57.71-2.79,1.64-4.91,3.97-7.32,5.89v.18c.48.46.61,1.21,1.31,1.31,1.66.24,3.24-1.55,4.35.32.67,1.14.88,2.39,1.31,3.62.57,1.64,1.02,3.42,1.49,5.3.79,3.18,1.77,7.94,4.53,9.11,1.4.6,3.52-.2,4.58-.84,2.89-1.71,5.15-4.2,7.08-6.72,4.41-5.98,6.85-12.76,7.22-14.69Z"/> </svg>
