<svg aria-hidden="true" aria-role="presentation" class="social-linkedin" viewBox="0 0 32 32"><path d="M9.69 27.02H5.52V11.84h4.17v15.18ZM7.63 9.72c-1.32.12-2.49-.86-2.6-2.18v-.19c0-1.32 1.08-2.38 2.39-2.38.09 0 .18 0 .27.02 1.32-.12 2.49.86 2.6 2.18v.19a2.42 2.42 0 0 1-2.45 2.38c-.07 0-.15 0-.22-.01Zm19.36 17.3h-4.18v-8.8c.17-1.62-1-3.08-2.63-3.25-.1-.01-.19-.02-.29-.02-1.17.02-2.22.7-2.71 1.76-.11.38-.16.77-.15 1.16v9.1h-4.17V11.79h3.72l.3 1.66a5.622 5.622 0 0 1 4.83-2.16c3.07 0 5.23 1.81 5.23 6.23l.05 9.5Z"/></svg>
