<svg aria-hidden="true" aria-role="presentation" class="user-void" viewBox="0 0 32 32"> <path d="M0 16C0 7.16 7.16 0 16 0s16 7.16 16 16-7.16 16-16 16c-8.83-.01-16-7.17-16-16Zm16 12.44c2.33 0 4.62-.65 6.6-1.89-3.4-3.67-9.12-3.88-12.79-.48-.16.14-.31.29-.45.45 1.99 1.26 4.29 1.93 6.64 1.93Zm6.52-6.5c1.03.63 1.97 1.41 2.79 2.31 4.56-5.14 4.09-13.01-1.05-17.57S11.25 2.59 6.69 7.74c-4.16 4.69-4.18 11.75-.04 16.47a12.61 12.61 0 0 1 15.87-2.26ZM10 13.34c0-3.31 2.69-6 6-6s6 2.69 6 6-2.69 6-6 6-6-2.69-6-6Zm2.97 0a3.03 3.03 0 0 0 3.04 3.03 3.03 3.03 0 0 0 3.03-3.04 3.034 3.034 0 1 0-6.07.01Z"/></svg>
