<svg aria-hidden="true" aria-role="presentation" class="user-filled" viewBox="0 0 32 32"><path d="M16 16.38a3.03 3.03 0 0 0 3.03-3.04 3.034 3.034 0 1 0-6.07.01A3.03 3.03 0 0 0 16 16.38Z"/><path d="M16 0C7.16 0 0 7.16 0 16s7.16 16 16 16 16-7.16 16-16S24.84 0 16 0Zm0 7.34c3.31 0 6 2.69 6 6s-2.69 6-6 6-6-2.69-6-6 2.69-6 6-6Zm6.59 19.2c-3.4-3.66-9.12-3.87-12.78-.48-.15.14-.3.29-.45.45-1.01-.64-1.92-1.42-2.71-2.31a12.62 12.62 0 0 1 15.87-2.25c1.03.63 1.97 1.4 2.78 2.3-.79.89-1.7 1.66-2.71 2.3Z"/></svg>
