<svg xmlns="http://www.w3.org/2000/svg" xmlns:xlink="http://www.w3.org/1999/xlink" viewBox="0 0 237.54 52"><svg x="55.5" xmlns="http://www.w3.org/2000/svg" xmlns:xlink="http://www.w3.org/1999/xlink" viewBox="0 0 315 129.8"><path d="M138.3 16.7h3.2v15.7c0 4.1-2.9 8.2-9.4 8.2-5.9 0-9.4-3-9.4-8V16.7h3.6v15.4c0 4 2 5.9 6.2 5.9 4.1 0 6-3 6-5.9V16.7h-.2zm13.3 0h-3.1v23.4h3V22.2l14 17.9h3.2V16.7h-3.1v18.1l-14-18.1zm28.3 0v23.4h-3.5V16.7h3.5zm5 0h3.6l5.8 17.6 6.4-17.6h3l-8.9 23.4H193l-8.1-23.4zm37.5 0v2.5H212v7.6h8.3v2.5H212v8.4h10.4v2.5h-14V16.7h14zM238 29.1l.4-.1c1.8-.5 4.4-3.3 4.4-6.4 0-2.8-2.6-5.9-8.3-5.9H228v23.4h3.6V18.9h2.5c3.8 0 5.1 2.2 5.1 4.1 0 2-1.6 4.7-5.2 4.7h-.9l7.9 12.4h4.2l-7.2-11zm21.7 5.5c0-2.2-2.1-3.5-4.5-4.9l-.8-.5c-2.7-1.6-5.5-3.7-5.5-7 0-3.4 3-6 7-6 3.4 0 5.4.8 6.2 1.2-.1.2-.9 2.1-1 2.3-.8-.4-2.4-1-4.6-1-2.5 0-4.1 1.1-4.1 2.9 0 2.2 1.8 3.3 4.1 4.7l1 .6.1.1c2.3 1.5 5.9 3.7 5.9 6.9 0 4-4.3 6.7-8.3 6.7-3.8 0-6-1.1-6.9-1.5.1-.2.9-2 1-2.2 1 .5 3 1.3 6 1.3 2.4-.1 4.4-1.7 4.4-3.6zm13.2-17.9v23.4h-3.5V16.7h3.5zm23.5 0v2.5h-7.7v21h-3.6v-21h-7.7v-2.5h19zm8.2 2.4v7.6h8.3v2.5h-8.3v8.4H315v2.5h-14V16.7h14v2.5h-10.4v-.1zm6.9-10.3l1.4 2.1-6 3.3-.8-1.3 5.4-4.1zm-84.6 40.6v.2c5 1.9 2.3 8.3.1 13.8l-11 27.8-16.1-41.8h-10.7v.2c3.1 2.4 4.8 7.1 6.3 11.1l15.3 39.6h7.7L239 49.4h-12.1zM315 92.7c-3 1.4-6.2 2-9.9 2h-11V49.4h-11.9v.2c3.7 1.3 3.6 7.1 3.6 10.7V100c-4-2-6-6.6-7.9-11l-16.8-39.7h-12.8v.2c3.8 1.1 2.4 4.4 1.2 7.2L236 89c-1.8 4.4-3.8 9-7.9 11v.2h10.1l5.2-13.5h24.8l5.4 13.5H315v-7.5zm-69.2-11.5L255.9 56l10.3 25.2h-20.4zm-52.1 7.9l-16.8-39.7h-12.8v.2c3.8 1.1 2.4 4.4 1.2 7.2l-13.5 32.3-2.1 4.7c-1.9.6-4 .9-6.2.9h-11V49.4h-11.9v.2c3.7 1.3 3.6 7.1 3.6 10.7v40h29.9l5.2-13.5h24.8l5.3 13.5h12.2v-.2c-4.2-2.1-6-6.6-7.9-11zm-32.3-7.9L171.5 56l10.3 25.2h-20.4zM0 0v101.4c0 8.7 6.7 15.6 15.3 15.6h24.1c3.2 0 7.4 2.2 9.5 8.3l1.2 3.4c.3.7.7 1.1 1.2 1.1s.9-.4 1.2-1.1l1.2-3.4c2.1-6.1 6.3-8.3 9.5-8.3h24.1c8.6 0 15.3-6.8 15.3-15.6V0H0z"/><path d="M61.3 2.4H2.4v100.5h.1c.7 6.8 6.3 11.6 12.8 11.6h24.1c.9 0 1.8.1 2.7.4v-12h18.2v12c.9-.3 1.9-.4 2.7-.4h24.1c7 0 12.9-5.5 12.9-13.1v-99H61.3z" fill="#eb212e"/><path d="M60.3 49.4v-47H42.1v47H2.4v18.2h39.7v47.3c3.4 1 7.1 3.8 9.1 9.5 2-5.7 5.6-8.6 9.1-9.5V67.6H100V49.4H60.3z" fill="#ffca30"/><use xlink:href="#prefix__A"/><use x="18.2" xlink:href="#prefix__A"/><use y="21.2" xlink:href="#prefix__A"/><use y="21.2" x="18.2" xlink:href="#prefix__A"/><use x="57.9" xlink:href="#prefix__A"/><use x="76.1" xlink:href="#prefix__A"/><use x="57.9" y="21.2" xlink:href="#prefix__A"/><use x="76.1" y="21.2" xlink:href="#prefix__A"/><use y="65" xlink:href="#prefix__A"/><use y="65" x="18.2" xlink:href="#prefix__A"/><use y="86.4" xlink:href="#prefix__A"/><use y="86.4" x="18.2" xlink:href="#prefix__A"/><use y="65" x="57.9" xlink:href="#prefix__A"/><use y="65" x="76.1" xlink:href="#prefix__A"/><use x="57.9" y="86.4" xlink:href="#prefix__A"/><use x="76.1" y="86.4" xlink:href="#prefix__A"/><use xlink:href="#prefix__B"/><use y="-32.5" xlink:href="#prefix__B"/><use y="-65.1" xlink:href="#prefix__B"/><use y="-32.5" x="-28.9" xlink:href="#prefix__B"/><use y="-32.5" x="29" xlink:href="#prefix__B"/><defs><g id="prefix__A"><path d="M17.1 21.8c.1.3-.1.5-.3.6-.4.2-1.6.3-2.1.1 0 0-.6 1.1-1.5 1.1s-1.5-1.1-1.5-1.1c-.5.1-1.7.1-2.1-.1-.2-.1-.4-.4-.3-.6l1.3-5.2-1.6.6c-.3 1.2-1.1 3.2-2.6 3.3-.2 0-.5-.1-.5-.3l1.3-10c.1-.6.3-.9.8-1.1s.9 0 1.4.4c.4.4 1.9 1.7 1.9 1.7l.2-1.6h-.4c-.2 0-.4-.2-.4-.4l.2-1.5c0-.2.1-.3.2-.3 0 0 .6-.3 1.2-.5.5-.2.9-.2.9-.2.4 0 .8.1 1 .3.3.2.5.6.5 1l.3 3.2 1.9-1.7c.5-.5.9-.6 1.4-.4s.7.5.8 1.2l1.3 10c0 .2-.3.3-.5.3-1.5-.1-2.3-2.1-2.6-3.3l-1.6-.6 1.4 5.1z"/><path d="M16.3 21.8c-.3.1-.8.2-1.1.2H15l-.7-3c-.1-.5-.5-.5-.5.1l.3 3c-.1.2-.5.9-.9.9s-.9-.7-.9-.9l.3-3c.1-.6-.4-.6-.5-.1l-.6 2.9h-.2c-.3 0-.9 0-1.1-.1l1.5-5.7c0-.2-.1-.4-.4-.4h-.2c-.4.1-1.4.5-1.8.7l.2-2.4c.1-.6-.4-.6-.5-.1-.5 2.1-.7 4.9-2.2 5.8L8 10.3c0-.2 0-.4.3-.5.2-.1.4 0 .5.2l2.5 2.3c.1.1.3.2.4.1.1 0 .3-.2.3-.3l.3-2.8c0-.1 0-.2-.1-.3s-.2-.1-.3-.1h-.4l.1-.9c.3-.1 1-.5 1.4-.5h.1c.2 0 .4.1.6.2s.3.2.3.4l.4 4c0 .2.1.3.3.3.1 0 .3 0 .4-.1l2.5-2.3c.2-.2.3-.2.5-.2.3.1.3.3.3.5l1.2 9.4c-1.5-.9-1.8-3.7-2.2-5.8-.1-.5-.6-.5-.5.1l.2 2.4-1.8-.7h-.2c-.3 0-.4.3-.4.4.4 1 1.2 4.3 1.6 5.7z" fill="#dcddde"/></g><g id="prefix__B"><path d="M51.2 97.7c.8 0 1.5-.4 1.9-1 .3.2.7.2 1 .2 1.1 0 2.1-.9 2.2-2a2.22 2.22 0 002.2-2.2c0-.5-.2-1-.5-1.4l-2.5-3v-1.2a1.11 1.11 0 00-1.1-1.1h-1.1l-1-1c-.3-.3-.6-.4-1-.4s-.7.1-1 .4l-1 1h-1.1a1.11 1.11 0 00-1.1 1.1v1.2l-2.5 3c-.3.4-.5.9-.5 1.4a2.22 2.22 0 002.2 2.2c.1 1.1 1 2 2.2 2 .4 0 .7-.1 1-.2.3.6 1 1 1.7 1z"/><path d="M51.2 97c.5 0 1-.3 1.2-.7l-.4-4c0-.2.1-.3.3-.3s.3.1.3.2l.7 3.8c.2.1.5.2.7.2.8 0 1.4-.6 1.5-1.4L53.9 91c-.1-.1 0-.3.2-.4.1-.1.3 0 .4.1l1.8 3.4a1.54 1.54 0 001.5-1.5c0-.3 0-.6-.2-.8l-2.8-3.4v-1.5c0-.2-.1-.3-.3-.3h-1.4l-1.2-1.2c-.1-.1-.3-.2-.5-.2s-.4.1-.5.2l-1.2 1.2h-1.4c-.2 0-.3.1-.3.3v1.5L45 92c-.2.2-.2.5-.2.8a1.54 1.54 0 001.5 1.5l1.8-3.4c.1-.1.2-.2.4-.1.1.1.2.2.2.4L47 94.9c.1.8.7 1.4 1.5 1.4.3 0 .5-.1.7-.2l.7-3.8c0-.2.2-.3.3-.2.2 0 .3.2.3.3l-.4 4c.2.3.6.6 1.1.6z" fill="#00afec"/></g></defs></svg><path d="M.19 20.16V12.8h4.42v.86H1.1v2.26h2.32v.86H1.1v3.37l-.91.01zM8.56 20.16v-.49c-.41.4-.95.62-1.52.62-.5.03-.98-.14-1.36-.47-.36-.35-.54-.84-.51-1.34-.03-.51.18-1 .58-1.32.41-.31.92-.47 1.43-.45.48-.01.96.11 1.39.35v-.38c.04-.34-.07-.68-.3-.94-.25-.19-.55-.29-.87-.27-.57.01-1.11.2-1.57.54l-.27-.77a3.44 3.44 0 011.94-.57c.93-.13 1.79.52 1.91 1.45.02.16.02.32 0 .48v3.56h-.85zm-1.38-.69c.55-.01 1.06-.27 1.39-.7v-.92c-.38-.24-.81-.36-1.26-.36-.32-.01-.64.07-.91.25-.24.17-.37.44-.36.74-.01.27.1.54.3.73.23.19.53.29.84.26M12.92 20.28c-.63.03-1.23-.25-1.63-.74-.43-.6-.64-1.33-.6-2.06-.05-.74.17-1.47.6-2.07.41-.5 1.02-.77 1.66-.75.84-.07 1.62.45 1.88 1.25l-.86.32a.992.992 0 00-1.01-.71c-.4-.02-.79.17-1.01.51-.25.44-.37.95-.34 1.45-.03.5.09 1 .34 1.43.21.33.58.53.98.51.51.04.97-.3 1.09-.8l.85.28c-.11.41-.36.77-.71 1.02-.36.26-.8.38-1.24.36M19.41 20.16v-.51c-.32.42-.83.66-1.36.64-.55.04-1.09-.17-1.47-.57-.37-.53-.54-1.18-.49-1.83v-3.1H17v3.23c-.03.38.08.76.31 1.07.22.23.53.36.85.34.83 0 1.24-.46 1.24-1.39v-3.26h.91v5.37h-.9zM22.12 20.16V13l.91-.43v7.59h-.91zM26.28 20.28c-.76 0-1.13-.43-1.13-1.28v-3.42h-.87v-.8h.88v-1.77l.91-.44v2.22h1.32v.8h-1.33v3.11c-.01.19.03.38.12.55.1.14.27.21.44.19.29-.02.57-.11.8-.28l-.1.89c-.33.16-.68.24-1.04.23M30.72 20.28c-.67.03-1.31-.26-1.74-.78-.45-.58-.68-1.3-.65-2.03-.04-.74.19-1.48.65-2.06.44-.5 1.07-.77 1.73-.75.6-.02 1.18.22 1.59.65.45.53.68 1.21.62 1.91 0 .2-.01.41-.03.61h-3.64c.01.44.17.85.46 1.18.25.29.63.45 1.01.45.44.01.85-.17 1.16-.48l.56.62c-.45.45-1.07.7-1.72.68m-1.46-3.23h2.75c.03-.44-.11-.87-.39-1.2-.24-.24-.56-.38-.9-.37-.38-.01-.75.13-1.02.39-.29.32-.45.74-.44 1.18m.27-2.94l1.49-1.64h1.3l-1.87 1.64h-.92zM38.67 20.28c-.63.02-1.23-.26-1.62-.76-.43-.6-.64-1.32-.6-2.06-.04-.74.17-1.46.6-2.06a2.096 2.096 0 012.97-.24V13l.91-.43v7.59h-.91v-.42c-.35.36-.84.56-1.35.54m.12-.85c.51.01.99-.27 1.23-.73v-2.52c-.25-.44-.73-.7-1.23-.68-.41-.02-.81.17-1.05.51-.27.44-.4.94-.37 1.46-.02.5.11.99.38 1.41.23.35.62.56 1.04.55M44.75 20.28c-.67.03-1.31-.26-1.74-.78-.45-.58-.68-1.3-.65-2.03-.04-.74.19-1.48.65-2.06.44-.5 1.07-.77 1.73-.75.6-.02 1.18.22 1.59.65.45.53.68 1.21.62 1.91 0 .2-.01.41-.03.61H43.3c.01.43.17.85.46 1.18.26.29.63.45 1.01.45.44.01.85-.17 1.16-.48l.56.62c-.47.45-1.09.7-1.74.68m-1.46-3.23h2.75c.03-.44-.11-.87-.39-1.2-.24-.24-.56-.38-.9-.37-.38-.01-.75.13-1.02.39-.3.32-.45.74-.44 1.18M49.92 20.28c-.38 0-.76-.08-1.1-.25-.33-.15-.62-.37-.85-.66l.65-.56c.33.39.8.63 1.31.64.25.01.51-.05.73-.17.18-.11.28-.3.27-.51 0-.17-.07-.34-.2-.46a1.73 1.73 0 00-.41-.3c-.14-.07-.35-.15-.62-.26-.45-.15-.87-.38-1.24-.68a1.26 1.26 0 01-.42-1c-.01-.41.18-.8.51-1.03.38-.27.84-.4 1.3-.38.7-.02 1.36.27 1.81.81l-.63.53c-.3-.33-.74-.52-1.19-.52-.23-.01-.45.04-.65.16a.49.49 0 00-.24.44c0 .1.03.2.08.29.07.11.17.19.28.25.14.08.25.14.33.17s.23.1.45.18c.47.15.91.39 1.3.69.31.28.47.68.45 1.09.02.43-.17.85-.51 1.12-.42.3-.92.44-1.41.41M57.31 20.28c-.38 0-.76-.08-1.1-.25-.33-.15-.62-.37-.85-.66l.65-.56c.33.39.8.63 1.31.64.25.01.51-.05.73-.17.18-.11.28-.3.27-.51 0-.17-.07-.34-.2-.46a1.73 1.73 0 00-.41-.3c-.14-.07-.35-.15-.62-.26-.45-.15-.87-.38-1.24-.68a1.26 1.26 0 01-.42-1c-.01-.41.18-.8.51-1.03.38-.27.84-.4 1.3-.38.7-.02 1.36.27 1.81.81l-.62.53c-.3-.33-.74-.52-1.19-.52-.23-.01-.45.04-.65.16a.49.49 0 00-.24.44c0 .1.03.2.08.29.07.11.17.19.28.25.14.08.25.14.33.17s.23.1.45.18c.47.15.91.39 1.3.69.31.28.47.68.45 1.09.02.43-.17.85-.51 1.12-.42.3-.92.44-1.42.41M62.57 20.28c-.63.03-1.23-.25-1.63-.74-.43-.6-.64-1.33-.6-2.06-.05-.74.17-1.47.6-2.07.41-.5 1.02-.78 1.67-.75.84-.07 1.62.45 1.88 1.25l-.86.32a.992.992 0 00-1.01-.71c-.4-.02-.79.17-1.01.51-.25.44-.37.95-.34 1.45-.03.5.09 1 .34 1.43.21.33.58.53.98.51.51.04.97-.3 1.09-.8l.85.28c-.11.41-.36.77-.71 1.02-.37.25-.81.38-1.25.36M66.78 13.65c-.11.11-.26.17-.41.16-.15 0-.3-.06-.4-.17a.55.55 0 01-.16-.4c0-.16.06-.3.17-.42.1-.11.25-.17.4-.17.16 0 .3.06.41.17.11.11.17.26.17.42 0 .15-.07.3-.18.41m-.86 1.14h.91v5.37h-.91v-5.37zM70.65 20.28c-.67.03-1.31-.26-1.74-.78-.45-.58-.68-1.3-.65-2.03-.04-.74.19-1.48.65-2.06.44-.5 1.07-.77 1.73-.75.6-.02 1.18.22 1.59.65.45.53.68 1.21.62 1.91 0 .2-.01.41-.03.61H69.2c.01.43.17.85.46 1.18.26.29.63.45 1.01.45.44.01.85-.17 1.16-.48l.56.62c-.47.45-1.09.7-1.74.68m-1.46-3.23h2.75c.03-.44-.11-.87-.39-1.2-.24-.24-.56-.38-.9-.37-.38-.01-.75.13-1.02.39-.3.32-.45.74-.44 1.18M77.54 20.16v-3.25c.03-.38-.08-.76-.31-1.07-.22-.23-.53-.36-.85-.34-.83 0-1.24.46-1.24 1.39v3.27h-.91v-5.37h.91v.54c.32-.44.84-.7 1.39-.67.54-.04 1.07.17 1.43.57.37.54.54 1.18.49 1.83v3.09l-.91.01zM82.06 20.28c-.63.03-1.23-.25-1.63-.74-.43-.6-.64-1.33-.6-2.06-.05-.74.17-1.47.6-2.07.41-.5 1.02-.78 1.66-.75.84-.07 1.62.45 1.88 1.25l-.86.32a.992.992 0 00-1.01-.71c-.4-.02-.79.17-1.01.51-.25.44-.37.95-.34 1.45-.03.5.09 1 .34 1.43.21.33.58.53.98.51.51.04.97-.3 1.09-.8l.85.28c-.11.41-.36.77-.71 1.02-.36.26-.8.38-1.24.36M87.47 20.28c-.67.03-1.31-.26-1.74-.78-.45-.58-.68-1.3-.65-2.03-.04-.74.19-1.48.65-2.06.44-.5 1.07-.77 1.73-.75.6-.02 1.18.22 1.59.65.45.53.68 1.21.62 1.91 0 .2-.01.41-.03.61h-3.63c.01.43.17.85.46 1.18.26.29.63.45 1.01.45.44.01.85-.17 1.16-.48l.56.62c-.45.45-1.08.7-1.73.68m-1.46-3.23h2.75c.03-.44-.11-.87-.39-1.2-.24-.24-.56-.38-.9-.37-.38-.01-.75.13-1.02.39-.29.32-.45.74-.44 1.18M92.64 20.28c-.38 0-.76-.08-1.1-.25-.33-.15-.62-.37-.85-.66l.65-.56c.33.39.8.63 1.31.64.25.01.51-.05.73-.17.18-.11.28-.3.27-.51 0-.17-.07-.34-.2-.46a1.73 1.73 0 00-.41-.3c-.14-.07-.35-.15-.62-.26-.45-.15-.87-.38-1.24-.68a1.26 1.26 0 01-.42-1c-.01-.41.18-.8.51-1.03.38-.27.84-.4 1.3-.38.7-.02 1.36.27 1.81.81l-.63.53c-.3-.33-.74-.52-1.19-.52-.23-.01-.45.04-.65.16a.49.49 0 00-.24.44c0 .1.03.2.08.29.07.11.17.19.28.25.14.08.25.14.33.17s.23.1.45.18c.47.15.91.39 1.3.69.31.28.47.68.45 1.09.02.43-.17.85-.51 1.12-.42.3-.91.44-1.41.41M10.64 32.89c-.63.02-1.23-.26-1.62-.76-.43-.6-.64-1.32-.6-2.06-.04-.74.17-1.46.6-2.06.75-.89 2.07-1 2.96-.25l.01.01V25.6l.91-.43v7.59h-.91v-.42c-.35.37-.85.57-1.35.55m.12-.85c.51.01.99-.27 1.23-.73v-2.52c-.25-.44-.73-.7-1.23-.68-.41-.02-.81.17-1.05.51-.27.44-.4.94-.37 1.46-.02.5.11.99.38 1.41.23.35.62.56 1.04.55M16.71 32.89a2.12 2.12 0 01-1.74-.78c-.45-.58-.68-1.3-.65-2.03-.04-.74.19-1.48.65-2.06.44-.5 1.07-.77 1.73-.75.6-.02 1.18.22 1.59.65.45.53.68 1.21.62 1.91 0 .2-.01.41-.03.61h-3.64c.01.43.17.85.46 1.18.26.29.63.45 1.01.45.44.01.85-.17 1.16-.48l.56.62c-.44.45-1.07.7-1.72.68m-1.46-3.24H18c.03-.44-.11-.87-.39-1.2-.24-.24-.56-.38-.9-.37-.38-.01-.75.13-1.02.39-.29.33-.45.75-.44 1.18M22.82 32.77v-7.16l.91-.43v7.59h-.91zM25.2 25.41h1.13l-.2 2.87h-.74l-.19-2.87zM30.85 32.76v-.49c-.41.4-.95.62-1.52.62-.5.03-.98-.14-1.36-.47-.36-.35-.54-.84-.51-1.34-.03-.51.18-1 .58-1.32.41-.31.92-.47 1.43-.45.48-.01.96.11 1.39.35v-.38c.04-.34-.07-.68-.3-.94-.25-.19-.55-.29-.87-.27-.57.01-1.11.2-1.57.54l-.26-.77a3.44 3.44 0 011.94-.57c.93-.13 1.79.52 1.91 1.45.02.16.02.32 0 .48v3.56h-.86zm-1.39-.68c.55-.01 1.06-.27 1.39-.7v-.92c-.38-.24-.82-.36-1.26-.36-.32-.01-.64.07-.91.25-.24.17-.37.44-.36.74-.01.27.1.54.3.72.23.2.53.3.84.27M35.2 32.89c-.63.02-1.23-.26-1.62-.76-.43-.6-.64-1.32-.6-2.06-.04-.74.17-1.46.6-2.06a2.096 2.096 0 012.97-.24V25.6l.91-.43v7.59h-.91v-.42c-.36.37-.85.57-1.35.55m.12-.85c.51.01.99-.27 1.23-.73v-2.52c-.25-.44-.73-.7-1.23-.68-.41-.02-.81.17-1.05.51-.27.44-.4.94-.37 1.46-.02.5.11.99.38 1.41.23.35.62.56 1.04.55M45.49 32.77v-3.26c0-.93-.36-1.4-1.08-1.4-.33-.01-.63.14-.83.39-.23.3-.34.66-.32 1.03v3.23h-.91V29.5c0-.93-.36-1.4-1.07-1.4-.32-.01-.64.12-.85.37-.22.29-.33.65-.31 1.01v3.28h-.92V27.4h.91v.5c.34-.43.86-.66 1.41-.63.29 0 .58.07.83.21.25.13.46.34.6.58.34-.53.94-.83 1.56-.79.51-.02 1 .17 1.37.51.37.39.56.92.53 1.46v3.52h-.92zM48.96 26.26c-.11.11-.26.17-.41.16-.15 0-.3-.06-.4-.17a.514.514 0 01-.16-.4c0-.16.06-.31.17-.42.1-.11.25-.18.4-.17.16 0 .3.06.41.17.11.11.17.26.17.42-.01.15-.07.3-.18.41m-.86 1.13h.91v5.37h-.91v-5.37zM54.07 32.77v-3.25c.03-.38-.08-.76-.31-1.07-.22-.23-.53-.36-.85-.34-.83 0-1.24.46-1.24 1.39v3.27h-.92V27.4h.91v.55c.32-.44.84-.7 1.39-.67.54-.04 1.07.17 1.43.57.37.54.54 1.18.49 1.83v3.09h-.9zM57.54 26.26c-.11.11-.26.17-.41.16-.15 0-.3-.06-.4-.17a.55.55 0 01-.16-.4c0-.16.06-.31.17-.42.1-.11.25-.18.4-.17.16 0 .3.06.41.17.11.11.17.26.17.42 0 .15-.06.3-.18.41m-.85 1.13h.91v5.37h-.91v-5.37zM60.93 32.89c-.38 0-.76-.08-1.1-.25-.33-.15-.62-.37-.85-.66l.65-.56c.33.39.8.63 1.31.64.25.01.51-.05.73-.17.18-.11.28-.3.27-.51 0-.17-.07-.34-.2-.46a1.73 1.73 0 00-.41-.3c-.14-.07-.35-.15-.62-.26-.45-.15-.87-.38-1.24-.68a1.26 1.26 0 01-.42-1c-.01-.41.18-.8.51-1.03.38-.27.84-.4 1.3-.38.7-.02 1.36.27 1.81.81l-.63.53c-.3-.33-.74-.52-1.19-.52-.23-.01-.45.04-.65.16a.49.49 0 00-.24.44c0 .1.03.2.08.29.07.11.17.19.28.25.14.08.25.13.33.17s.23.1.45.18c.47.15.91.39 1.3.69.31.28.47.68.45 1.09.02.43-.17.85-.51 1.12-.42.3-.91.44-1.41.41M65.72 32.89c-.76 0-1.14-.43-1.14-1.28V28.2h-.87v-.8h.87v-1.77l.91-.44v2.22h1.32v.8H65.5v3.11c-.01.19.03.38.12.55.1.14.27.21.44.19.29-.02.57-.11.8-.28l-.1.89c-.33.15-.68.23-1.04.22M68.2 32.77V27.4h.91v.7c.2-.52.71-.85 1.27-.83.3-.01.59.09.83.27l-.14.86c-.23-.15-.49-.24-.77-.23-.32 0-.62.13-.83.37-.27.34-.4.77-.36 1.2v3.03h-.91zM75.15 32.76v-.49c-.41.4-.95.62-1.52.62-.5.03-.98-.14-1.36-.47-.36-.35-.54-.84-.51-1.34-.03-.51.18-1 .58-1.32.41-.31.91-.47 1.43-.45.48-.01.96.11 1.39.35v-.38c.04-.34-.07-.68-.3-.94-.25-.19-.55-.29-.87-.27-.57.01-1.11.2-1.57.54l-.26-.77a3.44 3.44 0 011.94-.57c.93-.13 1.79.52 1.91 1.45.02.16.02.32 0 .48v3.56h-.86zm-1.38-.68c.55-.01 1.06-.27 1.39-.7v-.92c-.38-.24-.82-.36-1.26-.36-.32-.01-.64.07-.91.25-.24.17-.37.44-.36.74-.01.27.1.54.3.72.23.2.53.3.84.27M79.05 32.89c-.76 0-1.13-.43-1.13-1.28V28.2h-.87v-.8h.87v-1.77l.91-.44v2.22h1.32v.8h-1.32v3.11c-.01.19.03.38.12.55.1.14.27.21.44.19.29-.02.57-.11.8-.28l-.1.89c-.32.15-.67.23-1.04.22M82.4 26.26c-.11.11-.26.17-.41.16-.15 0-.3-.06-.4-.17a.55.55 0 01-.16-.4c0-.16.06-.31.17-.42.1-.11.25-.18.4-.17.16 0 .3.06.41.17.11.11.17.26.17.42 0 .15-.06.3-.18.41m-.85 1.13h.91v5.37h-.91v-5.37zM88 32.14c-.9.96-2.41 1.01-3.37.1l-.1-.1a3.647 3.647 0 010-4.12c.9-.96 2.41-1.01 3.37-.1l.1.1c.85 1.24.85 2.88 0 4.12m-2.8-.62a1.352 1.352 0 002.13 0c.51-.89.51-1.99 0-2.88a1.342 1.342 0 00-2.13 0c-.28.43-.41.94-.38 1.46-.04.49.1 1 .38 1.42M93.37 32.77v-3.25c.03-.38-.08-.76-.31-1.07-.22-.23-.53-.36-.85-.34-.83 0-1.24.46-1.24 1.39v3.27h-.91V27.4h.91v.55c.32-.44.84-.7 1.39-.67.54-.04 1.07.17 1.43.57.37.54.54 1.18.49 1.83v3.09h-.91z"/></svg>